<svg xmlns="http://www.w3.org/2000/svg" xmlns:xlink="http://www.w3.org/1999/xlink" xmlns:inkscape="http://www.inkscape.org/namespaces/inkscape" version="1.1" width="101.4958" height="118.8648" viewBox="0 0 101.4958 118.8648">
<g inkscape:groupmode="layer" inkscape:label="Layer 1">
<path transform="matrix(1,0,0,-1,1,117.8648)" d="M31.3404 16.6683H32.9732C33.7762 16.6683 34.3066 17.0413 34.3066 17.6712V17.682C34.3066 18.186 33.9548 18.438 33.5191 18.5686 33.8077 18.6951 34.1019 18.942 34.1019 19.419V19.4295C34.1019 19.6656 34.0177 19.8604 33.8655 20.0174 33.6555 20.2229 33.3249 20.3431 32.9049 20.3431H31.3404ZM31.7497 18.7055V19.9709H32.868C33.393 19.9709 33.6818 19.7342 33.6818 19.3723V19.3615C33.6818 18.9312 33.3354 18.7055 32.8365 18.7055ZM31.7497 17.0413V18.3379H32.91C33.5506 18.3379 33.8865 18.1071 33.8865 17.708V17.6975C33.8865 17.2879 33.5401 17.0413 32.9837 17.0413Z" fill="#70605d"/>
<path transform="matrix(1,0,0,-1,1,117.8648)" d="M35.4858 16.6683H35.9113L36.347 17.6394H38.3471L38.7777 16.6683H39.2238L37.5491 20.3695H37.1608ZM36.5097 18.0122 37.3496 19.8867 38.1844 18.0122Z" fill="#70605d"/>
<path transform="matrix(1,0,0,-1,1,117.8648)" d="M40.6817 16.6683H42.3145C43.1175 16.6683 43.6479 17.0413 43.6479 17.6712V17.682C43.6479 18.186 43.2961 18.438 42.8604 18.5686 43.149 18.6951 43.4432 18.942 43.4432 19.419V19.4295C43.4432 19.6656 43.359 19.8604 43.2068 20.0174 42.9968 20.2229 42.6662 20.3431 42.2461 20.3431H40.6817ZM41.091 18.7055V19.9709H42.2093C42.7343 19.9709 43.0231 19.7342 43.0231 19.3723V19.3615C43.0231 18.9312 42.6767 18.7055 42.1778 18.7055ZM41.091 17.0413V18.3379H42.2512C42.8919 18.3379 43.2278 18.1071 43.2278 17.708V17.6975C43.2278 17.2879 42.8814 17.0413 42.3249 17.0413Z" fill="#70605d"/>
<path transform="matrix(1,0,0,-1,1,117.8648)" d="M46.1066 16.6683H46.5265V18.1281L48.0543 20.3431H47.5713L46.3218 18.5054 45.0828 20.3431H44.5788L46.1066 18.1227Z" fill="#70605d"/>
<path transform="matrix(1,0,0,-1,1,117.8648)" d="M50.2858 16.6416H50.6322L51.6455 19.6243 52.6535 16.6416H53.0053L54.3178 20.3431H53.8821L52.8318 17.2828 51.8238 20.3539H51.4826L50.4746 17.2828 49.4246 20.3431H48.973Z" fill="#70605d"/>
<path transform="matrix(1,0,0,-1,1,117.8648)" d="M56.0959 16.6683H58.7786V17.0464H56.5106V18.3322H58.5162V18.7109H56.5106V19.9655H58.7523V20.3431H56.0959Z" fill="#70605d"/>
<path transform="matrix(1,0,0,-1,1,117.8648)" d="M59.9202 16.6683H60.3456L60.7813 17.6394H62.7814L63.212 16.6683H63.6582L61.9835 20.3695H61.5951ZM60.944 18.0122 61.7839 19.8867 62.6187 18.0122Z" fill="#70605d"/>
<path transform="matrix(1,0,0,-1,1,117.8648)" d="M65.1161 16.6683H65.5308V18.0964H66.5807L67.6466 16.6683H68.1557L67.0269 18.1695C67.6046 18.2747 68.0244 18.6321 68.0244 19.2407V19.2509C68.0244 19.5403 67.9195 19.7977 67.7409 19.976 67.5099 20.2071 67.1477 20.3431 66.6961 20.3431H65.1161ZM65.5308 18.4691V19.9604H66.6646C67.2579 19.9604 67.6046 19.6872 67.6046 19.2356V19.2251C67.6046 18.7523 67.2106 18.4691 66.6595 18.4691Z" fill="#70605d"/>
<path transform="matrix(1,0,0,-1,1,117.8648)" d="M39.8429 29.084C39.7661 29.1053 39.691 29.1345 39.6224 29.175 39.5563 29.2144 39.4963 29.2632 39.4475 29.3233 39.4041 29.3763 39.3698 29.4347 39.3469 29.5004 39.3276 29.5605 39.316 29.622 39.316 29.6844 39.316 29.8023 39.3452 29.9157 39.4313 30.0002 39.5107 30.0773 39.6074 30.1133 39.7179 30.1133 39.7911 30.1133 39.8602 30.0954 39.9186 30.0523 39.975 30.0115 40.0184 29.958 40.0516 29.8967 40.089 29.829 40.1119 29.7547 40.1267 29.679 40.1428 29.5965 40.1502 29.5126 40.1502 29.4284 40.1502 29.3703 40.1477 29.3134 40.1426 29.2555 40.1372 29.1971 40.1278 29.139 40.1151 29.0823 40.0578 28.8266 39.973 28.5766 39.8497 28.345 39.7414 28.1412 39.6108 27.9471 39.4529 27.7778 39.316 27.6313 39.1584 27.5034 38.9786 27.4127 38.8236 27.3351 38.6561 27.284 38.4814 27.284 38.3751 27.284 38.2703 27.2996 38.1685 27.3302 38.0665 27.3614 37.9766 27.4144 37.8992 27.4881 37.8156 27.5669 37.7575 27.6684 37.7172 27.7761 37.6671 27.9113 37.6515 28.0641 37.6515 28.2067 37.6515 28.455 37.7079 28.7169 37.7751 28.9545 37.8734 29.3017 38.0239 29.6447 38.1881 29.9665 38.4426 30.4639 38.7213 30.9506 39.0285 31.4175 39.1482 31.5998 39.2734 31.7786 39.4047 31.9521 39.5286 32.1163 39.6612 32.2733 39.8041 32.4204 39.9254 32.5454 40.0586 32.6616 40.2058 32.7552 40.3223 32.8297 40.4555 32.8867 40.5958 32.8867 40.6239 32.8867 40.6545 32.883 40.6823 32.8793 40.7276 32.8728 40.7716 32.8572 40.8118 32.8351 40.8594 32.8093 40.8986 32.7716 40.9294 32.7285 40.9714 32.6704 40.9836 32.595 40.9836 32.5261 40.9836 32.4065 40.9479 32.277 40.9093 32.1661 40.8529 32.0017 40.7752 31.8438 40.6905 31.6933 40.5845 31.5037 40.4626 31.3214 40.3347 31.1462 40.1856 30.9424 40.0218 30.7483 39.848 30.5634 39.6567 30.361 39.4512 30.1708 39.2374 29.9911 39.0107 29.8015 38.7694 29.6294 38.5186 29.4732 38.4437 29.3088 38.3717 29.1424 38.3068 28.9743 38.2555 28.8397 38.2073 28.7031 38.1685 28.5644 38.1387 28.4584 38.1107 28.3504 38.094 28.2424 38.082 28.1636 38.073 28.0826 38.073 28.0023 38.073 27.9286 38.0806 27.8461 38.1098 27.7761 38.1305 27.7245 38.1603 27.6783 38.2039 27.6432 38.245 27.61 38.2915 27.5876 38.3426 27.5737 38.3981 27.5587 38.4548 27.5528 38.5121 27.5528 38.6269 27.5528 38.734 27.5839 38.8349 27.6381 38.9475 27.6985 39.0487 27.7761 39.1405 27.8643 39.2409 27.9609 39.3307 28.0658 39.4101 28.1806 39.4889 28.2934 39.5612 28.4102 39.6252 28.5321 39.6816 28.6398 39.7324 28.7498 39.7755 28.8629 39.8018 28.9332 39.8285 29.0095 39.8429 29.084ZM41.9153 28.0191C41.8836 27.9882 41.8516 27.9578 41.8187 27.9283 41.7249 27.8427 41.6259 27.7608 41.5213 27.6885 41.43 27.6259 41.3325 27.5695 41.2299 27.5275 41.1392 27.4898 41.0434 27.4674 40.945 27.4674 40.8495 27.4674 40.7551 27.4847 40.6678 27.5241 40.5836 27.5621 40.513 27.6182 40.4538 27.6888 40.3923 27.7622 40.3486 27.8481 40.3189 27.9388 40.2854 28.0414 40.271 28.148 40.271 28.2557 40.271 28.419 40.3087 28.5817 40.3676 28.7342 40.4323 28.9009 40.5142 29.0614 40.6111 29.2124 40.71 29.3666 40.8212 29.5123 40.9422 29.6498 41.0528 29.7751 41.1701 29.8976 41.2965 30.0078L41.3186 30.0268 41.5329 29.8774 41.5117 29.8468C41.4711 29.7882 41.4303 29.7295 41.3895 29.6711 41.3311 29.588 41.2764 29.5007 41.2234 29.4134 41.1608 29.3102 41.1007 29.2048 41.044 29.0979 40.9836 28.9848 40.9283 28.8697 40.879 28.7515 40.8311 28.6367 40.7917 28.5185 40.7602 28.3983 40.7324 28.2929 40.7154 28.1832 40.7154 28.0743 40.7154 28.0281 40.7186 27.9825 40.7273 27.9371 40.7347 27.9003 40.7463 27.8617 40.7673 27.8291 40.7852 27.7991 40.8073 27.7764 40.8376 27.7591 40.8713 27.7401 40.9141 27.735 40.9524 27.735 41.046 27.735 41.1381 27.7682 41.22 27.8104 41.3323 27.8688 41.4369 27.9448 41.5332 28.0264 41.6517 28.1265 41.7634 28.2351 41.8691 28.3487 41.9873 28.4754 42.1002 28.6075 42.2076 28.7436 42.3196 28.8853 42.427 29.0316 42.5302 29.1801 42.6308 29.3244 42.7269 29.4729 42.8187 29.6226 42.899 29.7544 42.9783 29.8865 43.0574 30.0192 43.1354 30.1501 43.215 30.2788 43.2952 30.4084L43.3134 30.4381 43.5523 30.3165 43.5356 30.2831C43.5127 30.2363 43.49 30.1898 43.4673 30.1436 43.4092 30.0251 43.3514 29.9061 43.2944 29.787 43.2113 29.6121 43.1271 29.4389 43.0432 29.2643 42.9423 29.0548 42.8403 28.8456 42.7394 28.6362 42.6305 28.4085 42.522 28.1809 42.4142 27.9541 42.3235 27.7622 42.2328 27.5706 42.1421 27.3793 42.4451 27.5564 42.7272 27.7648 42.984 28.0043 43.2533 28.256 43.4988 28.5307 43.7105 28.832L43.7329 28.8643 43.9288 28.7152 43.9098 28.6863C43.6844 28.3416 43.4089 28.0349 43.0988 27.7654 42.7459 27.4572 42.3524 27.1939 41.9457 26.9634 41.756 26.5586 41.5576 26.1561 41.345 25.7632 41.169 25.437 40.9734 25.1164 40.75 24.8207 40.5794 24.5945 40.3801 24.3748 40.1499 24.2084 39.9657 24.0749 39.7573 23.9859 39.5271 23.9859 39.3874 23.9859 39.2655 24.033 39.1663 24.1316 39.0572 24.2413 39.0209 24.3904 39.0209 24.5409 39.0209 24.694 39.0569 24.8428 39.1167 24.9834 39.1847 25.1436 39.276 25.2935 39.3786 25.4327 39.4957 25.592 39.6298 25.7394 39.7718 25.8763 39.9283 26.026 40.0927 26.1677 40.2656 26.2984 40.4467 26.4356 40.6344 26.564 40.8274 26.6839 41.0173 26.8024 41.2126 26.9121 41.4122 27.0133 41.4652 27.1253 41.5193 27.2364 41.5746 27.3475 41.6327 27.464 41.6911 27.5814 41.7501 27.6979 41.8042 27.8053 41.8592 27.9128 41.9153 28.0191ZM46.29 28.2339C46.2875 28.2163 46.2852 28.1976 46.2838 28.1789 46.2813 28.1497 46.2801 28.1205 46.2801 28.0916 46.2801 28.0091 46.2923 27.9272 46.3178 27.849 46.3414 27.7753 46.3765 27.7089 46.4261 27.6494 46.4751 27.5922 46.5333 27.5471 46.6024 27.5162 46.6798 27.4813 46.7617 27.4674 46.8462 27.4674 47.1866 27.4674 47.4928 27.5927 47.7658 27.7914 48.1255 28.0534 48.426 28.4581 48.6607 28.8303L48.674 28.8524C48.6873 28.9471 48.704 29.0421 48.7244 29.1362 48.7794 29.391 48.8543 29.6413 48.9444 29.8862 49.0382 30.1399 49.1474 30.3877 49.2701 30.6289 49.3914 30.8676 49.5241 31.1003 49.6681 31.3262 49.8039 31.5388 49.9499 31.7446 50.1092 31.9402 50.2495 32.1131 50.4003 32.2792 50.5638 32.43 50.6954 32.5511 50.8399 32.667 50.9961 32.7546 51.114 32.8212 51.2495 32.8757 51.3867 32.8757 51.4726 32.8757 51.5571 32.8555 51.6274 32.8048 51.7093 32.7455 51.7292 32.6378 51.7292 32.5434 51.7292 32.4476 51.7082 32.3481 51.6818 32.2571 51.647 32.1375 51.6022 32.0207 51.5534 31.9059 51.4959 31.7713 51.4321 31.6383 51.3641 31.5079 51.2906 31.3676 51.2124 31.2304 51.1305 31.0949 51.048 30.958 50.9598 30.8256 50.8686 30.6952 50.7827 30.5719 50.6923 30.452 50.5976 30.3358 50.4448 30.1482 50.2914 29.9599 50.1333 29.7763 50.0219 29.6464 49.9102 29.5177 49.7962 29.3907 49.718 29.3034 49.6383 29.2161 49.5558 29.1322 49.4991 29.0755 49.4425 29.0171 49.3838 28.9621 49.3381 28.9179 49.2922 28.8751 49.246 28.8329 49.2046 28.7943 49.1644 28.7549 49.1255 28.7138 49.1085 28.6316 49.1 28.5474 49.1006 28.4632 49.1014 28.3844 49.1017 28.3054 49.1017 28.2266 49.1017 28.082 49.1168 27.8906 49.1998 27.7673 49.263 27.6732 49.3489 27.627 49.462 27.627 49.5462 27.627 49.6259 27.6506 49.7004 27.6883 49.7894 27.733 49.8719 27.79 49.9487 27.8518 50.0346 27.9238 50.1154 28.002 50.1902 28.0845 50.2676 28.1707 50.3425 28.2594 50.4133 28.3507 50.4794 28.436 50.5431 28.5233 50.6038 28.6123 50.654 28.6855 50.7033 28.7592 50.7538 28.832L50.7759 28.8646 50.7832 28.8587C50.8337 28.9769 50.8898 29.0925 50.9513 29.2048 51.0202 29.3301 51.0956 29.4511 51.1753 29.5699 51.2521 29.6833 51.3332 29.7938 51.4205 29.8993 51.4996 29.9942 51.5835 30.0861 51.6739 30.1708L51.6954 30.1912 51.9151 30.0458 51.8944 30.0149C51.7598 29.8111 51.6351 29.6008 51.5242 29.3837 51.4293 29.1969 51.3411 29.0052 51.2668 28.8094 51.2059 28.6486 51.1526 28.4839 51.1157 28.3161 51.0891 28.1934 51.0659 28.0613 51.0659 27.9354 51.0659 27.8634 51.0718 27.7489 51.1112 27.6854 51.137 27.6437 51.1733 27.6236 51.2229 27.6236 51.2955 27.6236 51.3904 27.6576 51.4568 27.6851 51.5815 27.7364 51.7048 27.8155 51.8153 27.8923 51.9968 28.0191 52.1623 28.167 52.3137 28.328 52.4636 28.4876 52.5974 28.6622 52.7105 28.8499 52.6737 28.9341 52.6453 29.022 52.6246 29.1115 52.602 29.2105 52.592 29.3117 52.592 29.4131 52.592 29.5262 52.5997 29.6464 52.6289 29.7561 52.6496 29.8349 52.6774 29.9171 52.7207 29.9849 52.7525 30.0373 52.7936 30.0869 52.8466 30.1195 52.8877 30.1442 52.9342 30.1623 52.9826 30.1623 53.0206 30.1623 53.0569 30.1541 53.0901 30.138 53.1281 30.1195 53.1575 30.0912 53.1814 30.0569 53.2097 30.0149 53.2284 29.9667 53.2412 29.918 53.2582 29.8536 53.2624 29.7816 53.2624 29.715 53.2624 29.5211 53.2216 29.3323 53.1536 29.1509 53.0804 28.9553 52.9841 28.7688 52.8676 28.5956 52.7465 28.4153 52.6076 28.2472 52.4554 28.0922 52.3063 27.9405 52.1461 27.7999 51.9741 27.6749 51.9233 27.6381 51.8706 27.6029 51.8168 27.5703 51.7552 27.5329 51.6926 27.4983 51.6271 27.4677 51.5594 27.4365 51.4896 27.4099 51.4174 27.3872 51.3465 27.3671 51.2742 27.3557 51.2002 27.3557 51.0239 27.3557 50.8776 27.4215 50.764 27.5567 50.6353 27.7092 50.5973 27.9128 50.5973 28.1069 50.5973 28.1239 50.5979 28.1404 50.5987 28.1574 50.5596 28.1066 50.5191 28.0568 50.4782 28.0071 50.3855 27.8952 50.2841 27.7914 50.1755 27.6956 50.0706 27.6026 49.9555 27.5224 49.8317 27.4564 49.7149 27.3946 49.5882 27.3577 49.4555 27.3577 49.35 27.3577 49.2471 27.3793 49.1496 27.4195 49.047 27.4606 48.9609 27.5275 48.8883 27.6114 48.8078 27.7092 48.7505 27.8232 48.71 27.9422 48.6655 28.0743 48.6476 28.2192 48.6439 28.3598 48.5529 28.2285 48.4549 28.1015 48.3477 27.9831 48.1946 27.813 48.0249 27.6525 47.8369 27.5224 47.6821 27.4153 47.5138 27.3214 47.334 27.2636 47.1807 27.2137 47.0217 27.1843 46.8601 27.1843 46.7433 27.1843 46.6265 27.2018 46.5131 27.2293 46.3898 27.2599 46.2756 27.3115 46.171 27.3835 46.0607 27.4589 45.976 27.5601 45.9105 27.6752 45.8325 27.8138 45.8065 27.9731 45.8065 28.1299 45.8065 28.3181 45.8388 28.5029 45.904 28.6798 45.9677 28.8533 46.0519 29.0171 46.156 29.1696 46.2586 29.3207 46.3774 29.4596 46.5109 29.5838 46.6367 29.7011 46.7714 29.81 46.9162 29.9032 47.0432 29.9843 47.1781 30.0552 47.3199 30.1088 47.4313 30.1504 47.5557 30.1847 47.6756 30.1847 47.7465 30.1847 47.8157 30.1725 47.8834 30.1521 47.954 30.1314 48.0183 30.0988 48.0764 30.0535 48.138 30.0053 48.1839 29.9429 48.2176 29.8726 48.2573 29.7904 48.2709 29.6977 48.2709 29.607 48.2709 29.4701 48.2397 29.3409 48.1765 29.2192 48.1119 29.0951 48.0254 28.9862 47.9251 28.8893 47.8165 28.7844 47.694 28.6957 47.5639 28.6194 47.4279 28.5406 47.285 28.4737 47.1376 28.419 46.9916 28.364 46.8425 28.3192 46.69 28.2869 46.5588 28.258 46.4244 28.239 46.29 28.2339ZM55.1568 30.7244C55.1568 30.6646 55.1418 30.6062 55.1166 30.5535 55.0908 30.4968 55.057 30.4452 55.0148 30.4007 54.9748 30.3559 54.9295 30.3182 54.8776 30.289 54.8286 30.261 54.775 30.2431 54.718 30.2431 54.6661 30.2431 54.6205 30.2627 54.5916 30.3055 54.5615 30.3449 54.5511 30.3919 54.5511 30.4404 54.5511 30.4914 54.5607 30.543 54.574 30.5912 54.5902 30.6499 54.6131 30.7057 54.6452 30.7562 54.6758 30.8069 54.7155 30.8529 54.7614 30.8906 54.8104 30.9302 54.8671 30.9509 54.9303 30.9509 54.9935 30.9509 55.0474 30.9251 55.0905 30.8792 55.1319 30.8361 55.1568 30.7845 55.1568 30.7244ZM56.4919 29.5537C56.5651 29.6215 56.641 29.6867 56.7207 29.7456 56.8046 29.8074 56.8936 29.8661 56.9863 29.9137 57.0589 29.9511 57.1348 29.9837 57.2136 30.0044 57.276 30.0203 57.3401 30.0305 57.405 30.0305 57.4637 30.0305 57.5226 30.02 57.579 30.0042 57.6496 29.9837 57.7125 29.948 57.7684 29.9001 57.8333 29.8437 57.882 29.7694 57.9178 29.6918 57.9651 29.5894 57.9784 29.4664 57.9784 29.355 57.9784 29.2385 57.9574 29.1251 57.9206 29.0157 57.8812 28.9003 57.8333 28.7875 57.7772 28.6795 57.7193 28.5681 57.6575 28.4593 57.5932 28.3521 57.532 28.2495 57.4713 28.1472 57.4118 28.0434 57.3596 27.9533 57.3129 27.86 57.2732 27.7637 57.2426 27.6902 57.2199 27.6097 57.2199 27.5301 57.2199 27.5068 57.2219 27.4606 57.2426 27.4436 57.2596 27.43 57.2791 27.4229 57.3007 27.4229 57.4072 27.4229 57.5135 27.4898 57.5935 27.5545 57.7213 27.6574 57.8378 27.7747 57.9444 27.8997 58.0706 28.0477 58.1888 28.2025 58.3021 28.3603 58.413 28.5148 58.5213 28.6716 58.625 28.8312L58.6471 28.8655 58.839 28.7152 58.8212 28.6863C58.7846 28.6282 58.7486 28.5698 58.7137 28.5114 58.6525 28.4071 58.587 28.3059 58.5196 28.2064 58.4371 28.0854 58.3489 27.9677 58.2588 27.8515 58.1638 27.7296 58.0612 27.614 57.9487 27.5083 57.8443 27.4093 57.7295 27.3209 57.6054 27.2483 57.4929 27.1831 57.3693 27.1434 57.2386 27.1434 57.1708 27.1434 57.1037 27.1534 57.041 27.1794 56.984 27.2035 56.9319 27.2361 56.8888 27.2806 56.8466 27.3243 56.814 27.3756 56.7899 27.4323 56.7658 27.4912 56.7539 27.5516 56.7539 27.6151 56.7539 27.7279 56.7811 27.8393 56.821 27.9439 56.8672 28.0644 56.9242 28.1823 56.9857 28.2957 57.0521 28.4196 57.1235 28.5403 57.1992 28.6586 57.2717 28.7717 57.3423 28.8853 57.4106 29.0015 57.4682 29.0979 57.5229 29.198 57.5702 29.3 57.6011 29.3669 57.6317 29.45 57.6317 29.5245 57.6317 29.5872 57.6176 29.6464 57.5787 29.696 57.543 29.7422 57.4926 29.7595 57.4356 29.7595 57.3466 29.7595 57.2533 29.7133 57.1796 29.6668 57.0563 29.5897 56.9398 29.4834 56.8363 29.3822 56.6875 29.2365 56.5483 29.0792 56.416 28.9193 56.2462 28.713 56.0812 28.5026 55.9205 28.2889 55.8213 28.158 55.7235 28.0247 55.6228 27.8946 55.58 27.8396 55.5378 27.7843 55.4964 27.7279 55.4545 27.6707 55.4125 27.6131 55.3691 27.5584 55.3294 27.5054 55.29 27.4521 55.2509 27.3986 55.2175 27.3543 55.1843 27.3095 55.15 27.2653L55.1327 27.2432 54.7345 27.4056 55.1985 28.0434C55.2631 28.1327 55.326 28.2231 55.387 28.3144 55.4522 28.4122 55.5163 28.5114 55.578 28.6118 55.6407 28.7138 55.6999 28.8167 55.7575 28.9213 55.8125 29.022 55.8663 29.1226 55.9168 29.2246 55.9735 29.3403 56.0282 29.4653 56.0628 29.5894 56.0826 29.6597 56.1019 29.7422 56.1019 29.8159 56.1019 29.8414 56.1005 29.9004 56.0784 29.9188 56.0574 29.937 56.0254 29.9421 55.9987 29.9421 55.9497 29.9421 55.8969 29.9078 55.8604 29.878 55.7938 29.8242 55.7328 29.7629 55.6773 29.696 55.6078 29.6155 55.5443 29.5296 55.4839 29.4423 55.4196 29.3496 55.3575 29.2547 55.2969 29.1594 55.2404 29.0704 55.1849 28.9811 55.1293 28.8918 55.0865 28.8221 55.044 28.7532 54.9992 28.688 54.9221 28.5474 54.8391 28.4102 54.7549 28.2739 54.6644 28.1276 54.563 27.9887 54.4484 27.8609 54.3385 27.7381 54.2132 27.6293 54.0717 27.5428 53.9311 27.4572 53.7775 27.4141 53.6125 27.4141 53.4711 27.4141 53.3381 27.4535 53.2417 27.561 53.149 27.6647 53.1142 27.7948 53.1142 27.9317 53.1142 28.1171 53.1592 28.298 53.2315 28.4686 53.312 28.6574 53.4121 28.8388 53.5241 29.0117 53.6397 29.1903 53.7659 29.3627 53.9016 29.5271 54.0252 29.6773 54.1502 29.8261 54.2767 29.9738L54.2945 29.9942 54.4759 29.9154 54.4578 29.8797C54.4139 29.7938 54.3677 29.7096 54.3212 29.6249 54.2577 29.5101 54.195 29.3944 54.1335 29.2785 54.0643 29.1478 53.9955 29.0171 53.9291 28.8853 53.8631 28.7535 53.8004 28.6203 53.7423 28.4848 53.6919 28.3666 53.6454 28.2458 53.6077 28.1225 53.5805 28.0346 53.5572 27.9354 53.5572 27.843 53.5572 27.8084 53.5603 27.7486 53.5887 27.7231 53.6156 27.7004 53.6559 27.6945 53.6902 27.6945 53.7925 27.6945 53.8838 27.7311 53.9674 27.788 54.0714 27.86 54.1655 27.9493 54.2489 28.0437 54.3504 28.1591 54.4422 28.2827 54.5267 28.4105 54.6188 28.5508 54.7115 28.6897 54.8019 28.8306 54.9179 29.012 55.0327 29.1934 55.146 29.3754 55.2382 29.5228 55.3365 29.67 55.446 29.8054 55.5293 29.9086 55.6248 30.0115 55.7325 30.0903 55.8247 30.1569 55.9287 30.1949 56.0429 30.1949 56.1033 30.1949 56.1617 30.183 56.217 30.1589 56.2734 30.1331 56.3221 30.0969 56.3632 30.0501 56.4072 30.0002 56.4395 29.9429 56.4616 29.8803 56.4877 29.8074 56.497 29.7286 56.497 29.6515 56.497 29.6189 56.4953 29.5863 56.4919 29.5537ZM38.7479 29.9546C38.9231 30.0801 39.092 30.2156 39.2519 30.3602 39.4336 30.5254 39.6088 30.6986 39.7726 30.8809 39.918 31.0436 40.0564 31.2131 40.1828 31.3914 40.2897 31.5408 40.3897 31.6967 40.4776 31.8586 40.5448 31.983 40.6086 32.1131 40.6556 32.2455 40.684 32.3257 40.7157 32.4286 40.7157 32.5142 40.7157 32.5403 40.7149 32.5729 40.6823 32.5729 40.5785 32.5729 40.4612 32.4972 40.3821 32.4363 40.2239 32.3141 40.0748 32.1301 39.9546 31.9708 39.7502 31.7001 39.5651 31.4084 39.3905 31.1179 39.1623 30.7386 38.9509 30.3474 38.7479 29.9546ZM39.8784 29.3545C39.8792 29.361 39.8795 29.3672 39.8801 29.3737 39.8809 29.3944 39.8809 29.4151 39.8809 29.4358 39.8809 29.5367 39.8721 29.6515 39.8322 29.7454 39.8109 29.7952 39.7777 29.8454 39.7179 29.8454 39.7043 29.8454 39.6899 29.8434 39.6754 29.84 39.6607 29.8366 39.6465 29.8298 39.6343 29.8213 39.6184 29.8091 39.6074 29.7938 39.5986 29.7751 39.5867 29.7527 39.5836 29.7215 39.5836 29.696 39.5836 29.607 39.6133 29.533 39.6785 29.4718 39.7366 29.4182 39.8047 29.3797 39.8784 29.3545ZM41.1868 26.5297C40.9484 26.3769 40.718 26.2117 40.4986 26.0325 40.2755 25.8508 40.0609 25.6555 39.8659 25.4443 39.7125 25.2782 39.5631 25.0965 39.4475 24.9012 39.3772 24.783 39.3004 24.6251 39.3004 24.4845 39.3004 24.4244 39.3148 24.3655 39.3582 24.3218 39.3999 24.279 39.45 24.2617 39.5093 24.2617 39.6099 24.2617 39.704 24.3011 39.7877 24.3547 39.8999 24.4264 40.0008 24.5188 40.0901 24.618 40.2021 24.7416 40.3016 24.878 40.3929 25.0174 40.4989 25.179 40.5981 25.3451 40.6911 25.5141 40.7908 25.6952 40.8852 25.8797 40.9748 26.0666 41.0482 26.2196 41.1188 26.3738 41.1868 26.5297ZM46.3431 28.4754C46.4794 28.4933 46.6138 28.5236 46.7436 28.5698 46.8814 28.6194 47.0149 28.6812 47.139 28.7583 47.2527 28.8295 47.3607 28.91 47.4582 29.0018 47.5447 29.0826 47.6252 29.1716 47.6935 29.2683 47.7496 29.3479 47.8012 29.4338 47.838 29.5248 47.8647 29.59 47.8877 29.6654 47.8877 29.7371 47.8877 29.7859 47.8772 29.8349 47.8443 29.8712 47.8162 29.9015 47.7845 29.9191 47.7431 29.9191 47.6218 29.9191 47.497 29.8667 47.3933 29.8074 47.245 29.7221 47.1112 29.6104 46.9911 29.49 46.8471 29.3448 46.7215 29.1815 46.6106 29.0103 46.5018 28.8422 46.4131 28.6625 46.3431 28.4754ZM49.2205 29.1835C49.398 29.3695 49.572 29.5588 49.7415 29.7527 49.9314 29.9693 50.1174 30.1898 50.2954 30.4169 50.459 30.6252 50.6169 30.8378 50.7679 31.0555 50.8989 31.244 51.0233 31.4379 51.1345 31.6392 51.2226 31.7991 51.3065 31.9657 51.3709 32.1358 51.4151 32.2534 51.4536 32.3878 51.4536 32.5142 51.4536 32.5307 51.4372 32.5621 51.4298 32.5746 51.4213 32.5882 51.4089 32.6066 51.3907 32.6066 51.2997 32.6066 51.1764 32.5159 51.1092 32.4621 50.9607 32.3427 50.8252 32.1987 50.7025 32.0533 50.5395 31.8594 50.3895 31.6536 50.2478 31.4442 50.0862 31.2046 49.9394 30.9546 49.805 30.6989 49.6658 30.4333 49.5431 30.1589 49.4348 29.8794 49.3469 29.6532 49.2738 29.4202 49.2205 29.1835ZM52.878 29.1467C52.9081 29.2263 52.933 29.3085 52.9529 29.391 52.9784 29.499 52.9948 29.6118 52.9948 29.7232 52.9948 29.7646 52.9934 29.8298 52.9787 29.8692 52.9773 29.8726 52.975 29.8777 52.9727 29.8828 52.9554 29.8658 52.9398 29.8383 52.9288 29.8176 52.9038 29.7734 52.888 29.7167 52.8766 29.6677 52.8579 29.5863 52.8534 29.4962 52.8534 29.4131 52.8534 29.3488 52.8579 29.2847 52.8659 29.2209 52.869 29.1957 52.8729 29.1716 52.878 29.1467" fill="#1a1a18" fill-rule="evenodd"/>
<path transform="matrix(1,0,0,-1,1,117.8648)" d="M26.7582 54.9363V38.8624H25.2655V54.9363ZM32.9579 39.5745V38.8624H26.6893V39.5745ZM34.3587 42.5823 33.0267 38.8624H29.215L30.0416 39.5745C30.8531 39.5745 31.515 39.7006 32.0281 39.9535 32.5409 40.206 32.9579 40.5615 33.2793 41.0207 33.601 41.4799 33.8842 42.0009 34.1291 42.5823ZM25.3344 40.5388V38.8624H23.4972V39.092C23.4972 39.092 23.5471 39.092 23.6466 39.092 23.7461 39.092 23.796 39.092 23.796 39.092 24.1937 39.092 24.5344 39.234 24.8176 39.5172 25.1011 39.8001 25.2502 40.1411 25.2655 40.5388ZM25.3344 53.2602H25.2655C25.2502 53.6584 25.1011 53.9991 24.8176 54.282 24.5344 54.5652 24.1937 54.7067 23.796 54.7067 23.796 54.7067 23.7461 54.7067 23.6466 54.7067 23.5471 54.7067 23.4972 54.7067 23.4972 54.7067V54.9363H25.3344ZM26.6893 53.2602V54.9363H28.5262V54.7067C28.5109 54.7067 28.4573 54.7067 28.3652 54.7067 28.2736 54.7067 28.2274 54.7067 28.2274 54.7067 27.8297 54.7067 27.489 54.5652 27.2058 54.282 26.9226 53.9991 26.7732 53.6584 26.7582 53.2602Z" fill="#70605d"/>
<path transform="matrix(1,0,0,-1,1,117.8648)" d="M42.2277 54.9363V38.8624H40.735V54.9363ZM48.4277 39.5745V38.8624H42.1588V39.5745ZM47.4403 47.1288V46.4397H42.1588V47.1288ZM48.4277 54.9363V54.2242H42.1588V54.9363ZM49.8285 42.5823 48.4965 38.8624H44.6848L45.5114 39.5745C46.3229 39.5745 46.9848 39.7006 47.4976 39.9535 48.0107 40.206 48.4277 40.5615 48.7491 41.0207 49.0708 41.4799 49.354 42.0009 49.5989 42.5823ZM47.4403 46.4856V44.9702H47.2105V45.3149C47.2105 45.6214 47.1033 45.8855 46.889 46.1069 46.675 46.3294 46.4145 46.4397 46.1083 46.4397V46.4856ZM47.4403 48.5986V47.0832H46.1083V47.1288C46.4145 47.1441 46.675 47.2626 46.889 47.4851 47.1033 47.7071 47.2105 47.9707 47.2105 48.2771V48.5986ZM48.4277 54.2934V52.4565H48.198V52.8698C48.198 53.2369 48.0679 53.5547 47.8077 53.8228 47.5475 54.0904 47.226 54.2322 46.8434 54.2477V54.2934ZM48.4277 55.3501V54.6834L45.6262 54.9363C45.9629 54.9363 46.319 54.9595 46.694 55.0054 47.069 55.0511 47.4171 55.1049 47.7388 55.1665 48.0603 55.2268 48.2899 55.2886 48.4277 55.3501ZM40.8039 40.5388V38.8624H38.967V39.092C38.967 39.092 39.0166 39.092 39.1161 39.092 39.2159 39.092 39.2658 39.092 39.2658 39.092 39.6635 39.092 40.0042 39.234 40.2874 39.5172 40.5709 39.8001 40.72 40.1411 40.735 40.5388ZM40.8039 53.2602H40.735C40.735 53.6584 40.5899 53.9991 40.299 54.282 40.0079 54.5652 39.6635 54.7067 39.2658 54.7067 39.2658 54.7067 39.2196 54.7067 39.128 54.7067 39.0359 54.7067 38.9903 54.7067 38.9903 54.7067L38.967 54.9363H40.8039Z" fill="#70605d"/>
<path transform="matrix(1,0,0,-1,1,117.8648)" d="M56.4114 55.2804 69.753 41.0443 69.9596 38.5415 56.6181 52.755ZM56.4574 40.4926V38.8624H54.5516V39.092C54.5516 39.092 54.6205 39.092 54.7583 39.092 54.896 39.092 54.9726 39.092 54.9879 39.092 55.3706 39.092 55.6997 39.2301 55.9752 39.5053 56.2507 39.7811 56.3885 40.1102 56.3885 40.4926ZM57.4447 40.4926C57.4447 40.1102 57.5827 39.7811 57.8582 39.5053 58.1338 39.2301 58.4629 39.092 58.8455 39.092 58.8609 39.092 58.9374 39.092 59.0751 39.092 59.2129 39.092 59.2818 39.092 59.2818 39.092V38.8624H57.3758V40.4926ZM56.4114 55.2804 57.4217 53.9946 57.4447 38.8624H56.3885V52.4103C56.3885 53.1907 56.3539 53.8648 56.285 54.4314 56.2161 54.9972 56.1818 55.2804 56.1818 55.2804ZM69.9596 54.9363V41.4799C69.9596 40.9901 69.9746 40.5198 70.0053 40.0677 70.0359 39.6167 70.0705 39.2494 70.1087 38.9659 70.147 38.6824 70.1663 38.5415 70.1663 38.5415H69.9596L68.9261 39.7585V54.9363ZM71.7965 54.9363V54.7067C71.7965 54.7067 71.7276 54.7067 71.5898 54.7067 71.4521 54.7067 71.3832 54.7067 71.3832 54.7067 71.0005 54.7067 70.6711 54.5723 70.3956 54.3047 70.1201 54.0371 69.9746 53.7043 69.9596 53.3061H69.8907V54.9363ZM67.0663 54.9363H68.972V53.3061H68.9261C68.9108 53.7043 68.7691 54.0371 68.5012 54.3047 68.2333 54.5723 67.9005 54.7067 67.5023 54.7067 67.5023 54.7067 67.4334 54.7067 67.2956 54.7067 67.1579 54.7067 67.0813 54.7067 67.0663 54.7067Z" fill="#70605d"/>
<path transform="matrix(1,0,0,-1,1,117.8648)" d="M83.9092 55.2577 90.7061 39.0002H88.7542L83.45 53.0768ZM78.9724 40.5388C78.8652 40.2324 78.8496 39.9722 78.9265 39.7585 79.003 39.5442 79.1294 39.3792 79.3054 39.2644 79.4812 39.1501 79.6612 39.092 79.8449 39.092H80.0515V38.8624H75.4359V39.092C75.4359 39.092 75.4705 39.092 75.5393 39.092 75.6082 39.092 75.6425 39.092 75.6425 39.092 75.9949 39.092 76.3583 39.2034 76.7336 39.4248 77.1086 39.6473 77.4184 40.0181 77.6633 40.5388ZM83.9092 55.2577 84.1158 53.6505 78.3522 38.931H76.9745L82.853 52.8928C82.853 52.8928 82.895 52.988 82.9791 53.1799 83.0636 53.3707 83.1631 53.6043 83.2776 53.8798 83.3924 54.1556 83.4919 54.4232 83.5764 54.6834 83.6603 54.9439 83.7026 55.1353 83.7026 55.2577ZM87.1472 45.1315V44.4424H79.9597V45.1315ZM88.1804 40.5388H90.0632C90.2928 40.0181 90.599 39.6473 90.9816 39.4248 91.3643 39.2034 91.732 39.092 92.084 39.092 92.084 39.092 92.1146 39.092 92.1759 39.092 92.2368 39.092 92.2674 39.092 92.2674 39.092V38.8624H87.101V39.092H87.3077C87.5988 39.092 87.8587 39.2187 88.0886 39.471 88.3182 39.7236 88.3485 40.0796 88.1804 40.5388" fill="#70605d"/>
<path transform="matrix(1,0,0,-1,1,117.8648)" d="M10.4893 54.9363V38.8624H8.9963V54.9363ZM16.689 39.5745V38.8624H10.4204V39.5745ZM15.7017 47.1288V46.4397H10.4204V47.1288ZM16.689 54.9363V54.2242H10.4204V54.9363ZM18.0899 42.5823 16.7579 38.8624H12.9461L13.7727 39.5745C14.5843 39.5745 15.2461 39.7006 15.7592 39.9535 16.272 40.206 16.689 40.5615 17.0104 41.0207 17.3322 41.4799 17.6153 42.0009 17.8603 42.5823ZM15.7017 46.4856V44.9702H15.4718V45.3149C15.4718 45.6214 15.3646 45.8855 15.1506 46.1069 14.9363 46.3294 14.6758 46.4397 14.3697 46.4397V46.4856ZM15.7017 48.5986V47.0832H14.3697V47.1288C14.6758 47.1441 14.9363 47.2626 15.1506 47.4851 15.3646 47.7071 15.4718 47.9707 15.4718 48.2771V48.5986ZM16.689 54.2934V52.4565H16.4594V52.8698C16.4594 53.2369 16.3293 53.5547 16.069 53.8228 15.8088 54.0904 15.4874 54.2322 15.1047 54.2477V54.2934ZM16.689 55.3501V54.6834L13.8875 54.9363C14.2243 54.9363 14.5803 54.9595 14.9553 55.0054 15.3303 55.0511 15.6784 55.1049 16.0002 55.1665 16.3216 55.2268 16.5512 55.2886 16.689 55.3501ZM9.0652 40.5388V38.8624H7.2283V39.092C7.2283 39.092 7.278 39.092 7.3777 39.092 7.4772 39.092 7.5271 39.092 7.5271 39.092 7.9248 39.092 8.2655 39.234 8.5487 39.5172 8.8322 39.8001 8.9813 40.1411 8.9963 40.5388ZM9.0652 53.2602H8.9963C8.9963 53.6584 8.8512 53.9991 8.5603 54.282 8.2692 54.5652 7.9248 54.7067 7.5271 54.7067 7.5271 54.7067 7.4809 54.7067 7.3894 54.7067 7.2972 54.7067 7.2516 54.7067 7.2516 54.7067L7.2283 54.9363H9.0652Z" fill="#70605d"/>
<path transform="matrix(1,0,0,-1,1,117.8648)" d="M54.1244 88.3763C54.6866 88.827 55.0616 89.4818 55.6345 89.9274 57.9186 91.7909 60.9531 93.1348 63.8802 92.0066 64.9587 91.5902 65.7536 90.9575 66.1394 89.8381 66.4265 89.0059 66.4387 88.1257 66.6094 87.2717 66.873 86.1636 67.278 85.9272 68.0389 85.1655 68.3495 84.8548 68.58 84.4588 68.5026 84.0047 68.4088 83.4545 67.9779 83.0665 67.8617 82.5525 68.9964 81.8379 70.0713 80.8143 70.8752 79.7428 72.2415 77.7506 72.4416 71.8092 70.9875 69.836 70.4543 69.1126 69.7207 68.5896 68.9332 68.1741 68.47 67.9297 67.9371 67.7772 67.5156 67.4631 68.3512 64.425 64.616 62.634 62.286 61.9194 60.8771 61.4874 59.489 60.9851 58.0598 60.6268 56.8012 60.2796 56.0642 60.2617 54.934 60.9831 54.5865 61.2045 54.271 61.3786 53.8605 61.4305 53.6204 59.7013 52.3171 59.2716 50.7407 59.2716 49.6551 59.2716 47.7703 60.069 47.0041 60.8357 46.6174 61.2045 46.2628 61.611 45.8374 61.9373 45.2679 62.3738 44.5425 62.6054 43.88 62.8614 42.6645 63.3305 41.3167 63.6919 41.0545 65.1577 39.5334 64.7453 38.9259 65.5778 38.1206 66.7281 37.4939 67.6244 36.811 68.9454 36.5916 70.0262 34.6124 70.2621 31.7537 70.9345 30.5549 72.6551 29.8945 73.6027 29.8789 74.9154 30.8256 75.6836 31.1125 75.9166 31.458 76.0649 31.8246 76.1102 33.1733 76.2792 34.1235 75.6405 35.3322 75.2678 35.1746 75.4829 34.9946 75.6816 34.8301 75.8911 34.431 76.3999 34.0449 76.9212 33.7133 77.4774 33.5288 77.7869 33.3473 78.0985 33.1787 78.4168 33.1163 78.5341 33.0613 78.6546 32.9919 78.7677 32.7294 79.1974 32.3498 79.5421 32.0255 79.9228 28.8096 83.696 26.572 87.0545 27.8881 92.2056 28.1231 93.0591 28.4176 93.8942 28.722 94.7239 29.1002 95.7563 29.416 96.8128 29.6464 97.8883 29.7468 98.3568 29.6501 98.3908 30.128 98.6295 31.0402 99.1159 32.671 98.4662 33.4922 97.9877 34.4177 97.4974 35.0209 96.8326 35.6499 96.0163 36.9703 94.4311 37.764 92.5129 38.7201 90.7072 39.7636 88.736 40.5366 86.6959 40.9643 84.505 41.3181 82.6931 41.7008 79.7309 42.8117 78.2473L43.9705 78.6002C44.1096 80.9841 42.7606 83.5177 41.7974 85.6346 40.4297 88.6397 39.3591 91.58 39.3854 94.9297 39.4313 96.5265 39.9107 99.4912 41.8538 99.8198 44.1088 100.2013 44.7525 98.1096 47.2782 99.3997 49.485 100.4443 50.4411 100.6727 52.4174 99.0252 54.8257 97.0177 55.2107 93.8378 54.7569 90.9099 54.6231 90.0473 54.3186 89.2261 54.1244 88.3763" fill="#1a1a18" fill-rule="evenodd"/>
<path transform="matrix(1,0,0,-1,1,117.8648)" d="M63.9816 72.6534C63.8342 72.8053 62.803 72.6735 62.714 72.661 61.8177 72.5312 60.8596 72.4813 59.9547 72.4348 58.9938 72.3852 57.9708 72.3334 57.0098 72.3662 56.0058 72.4014 54.987 72.3866 53.987 72.4734L53.9518 72.4762 53.9504 72.5465 54.129 72.5703C55.5792 72.7571 57.0251 72.9774 58.468 73.2158 59.8666 73.4462 61.2697 73.652 62.6686 73.8848 64.0505 74.1135 65.4817 74.3564 66.846 74.7145 66.9101 74.7147 67.002 74.7181 67.0533 74.7604L67.0671 74.7714 67.0842 74.7763C67.1681 74.7972 67.25 74.806 67.3191 74.8556 65.9211 74.7907 64.48 74.594 63.0958 74.3927 61.6844 74.1883 60.2765 73.9536 58.8719 73.7076 57.3942 73.4488 55.9157 73.1917 54.4258 73.0125 53.388 72.8884 52.3213 72.7826 51.2759 72.8515L51.2056 72.8563 51.1994 72.9958 51.2685 73.0074C52.1118 73.1429 52.9634 73.2146 53.8106 73.3178 54.6341 73.419 55.4618 73.5046 56.2748 73.6812 56.7578 73.7688 57.4537 73.8354 57.8271 74.1866 56.842 74.5639 53.892 73.6948 52.7014 73.6489 52.3905 73.6489 52.0804 73.6489 51.7714 73.6495 51.4709 73.6245 51.2215 73.514 50.9372 73.6863L50.7719 73.7872 50.9604 73.8303C52.4563 74.1733 54.0125 74.0129 55.5129 74.3255 57.0005 74.588 58.4997 74.8346 59.974 75.1643 61.8239 75.5796 63.5984 76.1522 65.3822 76.79 65.6028 76.8694 67.5295 77.5624 67.5958 77.8255 67.415 77.8819 65.5886 77.1381 65.3536 77.0377 64.9621 76.8713 64.5024 76.7429 64.0933 76.6247 63.4802 76.4464 62.8622 76.2826 62.2443 76.1224 61.1181 75.8307 59.9868 75.5524 58.8521 75.2839 57.9373 75.13 57.0623 74.8142 56.16 74.6447 54.9207 74.4114 53.6664 74.2493 52.4041 74.2357L52.1708 74.2331 52.3548 74.3763C52.3684 74.3871 52.3803 74.4012 52.3885 74.4165L52.4021 74.4406 52.4279 74.4508C52.6127 74.526 52.8126 74.5622 53.0048 74.6118 53.4098 74.7164 53.8316 74.6671 54.2341 74.7714 55.3989 75.0711 56.56 75.3866 57.7077 75.746 58.4215 75.9696 60.4497 76.568 61.147 76.8385 61.8058 77.0941 61.9447 77.1625 61.8126 77.3351 61.3803 77.2551 60.899 77.1032 60.4865 76.9825 60.0109 76.8424 59.538 76.695 59.0638 76.5493 58.1142 76.2585 57.1654 75.9637 56.2096 75.693 54.9686 75.3415 53.3968 74.8689 52.1107 74.8675H51.7045L52.0812 75.0192C53.3871 75.5447 54.7597 75.8704 56.0923 76.3143 59.455 77.5828 62.6675 78.8669 65.6351 80.9393 66.2604 81.3762 66.6879 81.9283 67.4909 82.0505L67.5213 82.0556 67.5465 82.0383C68.37 81.4932 69.4522 80.5504 70.0481 79.7652 70.9007 78.6413 71.1711 77.6364 71.223 76.244 71.3166 74.6736 71.5652 72.4141 70.8866 70.9671 70.4809 70.1019 69.7754 69.4845 68.9919 68.9683 66.3055 67.1173 63.8651 67.8844 60.899 68.2622 59.8669 68.394 58.8249 68.4218 57.7857 68.4541 56.2932 68.4992 53.9198 68.4816 52.5793 69.1135L52.1898 69.2974 52.619 69.2631C53.5734 69.1863 54.4995 68.8932 55.4562 68.8419 57.0345 68.7577 58.6128 68.6721 60.192 68.6052 61.2213 68.5621 62.2491 68.6775 63.2784 68.6616 63.9286 68.6517 64.5888 68.6254 65.2374 68.6911 62.7194 69.1262 60.0103 68.9814 57.458 69.0613 55.1974 69.1792 52.9617 69.4585 50.7651 70.0194 50.6492 70.052 50.2106 70.1583 50.1644 70.2768 50.1593 70.3375 50.1724 70.4018 50.1715 70.4619L50.171 70.5203 50.2265 70.5379C50.8414 70.7306 53.8197 70.0838 54.6953 69.9919 56.2365 69.8309 57.81 69.7558 59.3586 69.7022 60.9111 69.6475 62.4779 69.6166 64.0284 69.6492L64.2016 69.6767 64.0962 69.7272C63.7554 69.8635 62.1346 69.8618 61.7134 69.8669 60.9239 69.8771 60.1336 69.8652 59.345 69.8754 58.4714 69.8865 57.4702 69.8301 56.6116 70.0228L55.7172 70.4069 59.0272 70.23C58.7605 70.3933 58.3809 70.4353 58.0799 70.4665L58.0076 70.4738 58.0113 70.6195 58.0842 70.6229C59.1491 70.6774 60.205 70.4687 61.2689 70.4616 62.4098 70.4531 64.2841 70.5129 65.3689 70.8585 64.9188 71.0614 62.4263 70.8386 61.8381 70.8386 60.016 70.8386 58.1902 70.9639 56.3732 71.0901 55.2875 71.1649 54.2021 71.2519 53.1215 71.3809 52.4611 71.4597 51.6118 71.5436 50.9933 71.7766L50.5191 71.9549 51.025 71.9283C51.2906 71.9138 51.5602 71.9546 51.8253 71.9291 52.4273 71.871 53.0212 71.7525 53.6236 71.6953 54.0901 71.6516 56.0591 71.4283 56.431 71.5666L56.463 71.634 51.8227 72.0218C51.5835 72.0655 51.3612 71.9546 51.1586 72.1443L51.0208 72.2738 51.2096 72.2803C51.7048 72.2974 52.1989 72.339 52.7003 72.3923 54.3903 72.1879 56.1118 72.1185 57.8132 72.1253 59.8059 72.1332 62.0045 72.3231 63.9816 72.6534ZM36.2996 88.1277 38.7031 82.5287 39.4886 80.7769C39.9093 79.7207 40.7758 78.0786 41.6197 77.3311L41.6628 77.2931 41.6387 77.2384 41.6117 77.1854 41.5749 77.2106C41.127 77.5091 40.6678 77.9808 40.2999 78.3697 39.1915 79.5424 38.1637 82.4479 37.5333 83.9789 37.4859 84.0818 36.9731 84.5289 36.8643 84.6972 36.8646 84.6955 36.8649 84.6941 36.8651 84.6935 36.9116 84.4682 37.0176 84.1963 37.1061 83.986 37.4618 83.1424 37.8394 82.3039 38.2311 81.4774 38.6096 80.6774 39.2196 79.3366 39.7709 78.6645 40.0932 78.2719 40.4385 77.9014 40.8308 77.5777 41.0465 77.3994 41.292 77.2398 41.4961 77.0533L41.5185 77.0326 41.0562 76.1587 40.9884 76.191C40.5111 76.4189 39.1612 77.5706 38.8114 77.9905 37.2132 80.0802 37.0791 82.1546 36.4422 84.5901 36.3237 85.0433 36.1854 85.4909 36.0136 85.928L36.0116 85.9331C35.7979 86.5397 35.318 87.8411 34.9123 88.302 34.8959 88.3208 34.8352 88.3894 34.7859 88.4378 34.8613 88.2578 34.9274 87.8244 34.9637 87.7431 35.1128 87.4089 36.0408 84.7502 36.1103 84.4432 36.4017 83.1569 36.5998 81.8461 36.9933 80.5847 37.3054 79.5852 37.9483 78.656 38.4701 77.7526L38.7136 77.3308 38.3499 77.6548C38.0704 77.9034 37.7938 78.1571 37.4859 78.3876 37.4777 78.3981 37.472 78.4089 37.4689 78.4191 37.4377 78.459 37.3822 78.5123 37.3484 78.5483 36.7583 79.1787 36.0743 80.1714 35.6108 80.8963 35.3242 81.3438 35.045 81.8186 34.8307 82.3048 34.3641 83.3635 33.9775 84.651 33.7326 85.784L33.5089 85.9048C33.7419 84.2292 34.4324 81.8402 35.5346 80.5569 35.9354 80.0892 36.3226 79.6122 36.6831 79.1124 36.8952 78.819 37.0939 78.5154 37.3085 78.224 37.508 77.9545 37.7206 77.7115 37.9607 77.4734 38.1917 77.2194 38.4364 76.9793 38.6855 76.7429 38.8023 76.6324 38.9256 76.5286 39.0404 76.4155L39.2669 76.1941 38.9631 76.2849C38.1577 76.5252 37.474 76.9357 36.8391 77.4814 36.3266 77.9207 35.7885 78.5925 35.2304 78.9579 36.1349 77.5352 37.5676 76.263 39.113 75.5926L39.1808 75.5631 39.1303 75.4243 39.0597 75.4452C38.2022 75.6955 37.3737 76.0348 36.536 76.3435 35.1394 76.8577 34.7703 76.9014 33.9506 78.2257 32.5851 80.6156 32.6486 82.5902 32.2512 85.1978 31.8226 88.0095 34.111 89.4603 33.1305 92.4551 32.7229 93.6303 32.0757 94.6562 31.3965 95.6889 31.045 96.2223 30.3846 97.143 30.5116 97.8083 30.5283 97.8973 30.5586 97.9826 30.5991 98.0634L30.6162 98.0974 30.6539 98.1045C32.6738 98.5056 34.609 96.5248 35.678 95.0454 36.771 93.4384 37.5681 91.6571 38.4883 89.9515 39.3443 88.3641 39.8829 86.7319 40.2537 84.9716 40.5578 83.5262 40.7959 82.0658 41.1829 80.6394 41.4941 79.6521 42.0503 78.7592 42.3261 77.7591L42.3635 77.6231 42.2286 77.6631C41.8243 77.781 41.9236 77.7889 41.6231 78.0471 40.9144 78.7249 40.6046 79.4582 40.121 80.3015L40.0564 80.4146C39.8812 80.7559 39.7208 81.1426 39.562 81.4935 39.2221 82.2444 38.8865 82.9981 38.5574 83.7541 38.3553 84.2173 38.1557 84.6825 37.961 85.1496 37.853 85.4087 36.6557 87.8017 36.2996 88.1277ZM51.9055 91.1789C51.8511 91.0324 51.7748 90.6097 51.7623 90.5403 51.535 89.2641 51.1588 87.9038 50.8065 86.6463 50.5962 86.0788 50.3918 85.5094 50.182 84.9413 49.8178 83.9531 49.4549 82.8099 48.8993 81.9173L48.6706 81.5496 48.7556 81.974C48.9702 83.0463 49.4742 84.1708 49.5249 85.2763 49.2194 85.1601 49.0442 84.2363 48.9016 83.8091 48.7046 83.217 48.6079 82.5182 48.4432 81.9139 48.234 81.2874 47.9889 80.6737 47.7978 80.0376 47.6623 79.706 47.3933 78.8822 47.1506 78.6591 47.0795 78.5934 46.9936 78.5446 46.9066 78.5032L46.7668 78.4363 46.9497 79.4106 46.9664 79.4282C47.0509 79.5146 47.1146 79.5974 47.1796 79.6935L47.4752 80.458C47.5824 80.8333 47.704 81.2018 47.8267 81.5706 48.0084 82.2986 48.2445 83.0103 48.4135 83.7422 48.757 85.0589 49.1973 86.3841 49.3574 87.7408L49.693 90.1057C49.4589 89.5689 49.1287 87.5786 49.0929 87.3564L48.8537 86.3654C48.6791 85.7265 48.5651 85.0725 48.386 84.435 48.1209 83.4922 47.7808 82.5741 47.4914 81.6392L47.4695 81.5695 47.327 81.6029 47.3389 81.6752C47.8032 84.5342 48.348 87.3958 48.4688 90.2962 48.4174 90.2174 48.369 90.14 48.3265 90.0544L47.1563 82.446C47.0854 81.9836 46.9655 80.7406 46.7736 80.3891L46.6948 80.2451 46.6322 80.3968C46.616 80.4356 46.6058 80.4773 46.5962 80.5263 46.5968 81.4501 46.8247 82.3524 46.8907 83.274 47.0696 84.526 47.0679 85.809 47.0733 87.0724 47.0778 88.1025 47.0288 89.1547 46.9837 90.1845 46.9392 91.2098 46.8998 92.2725 46.7943 93.2916 46.745 93.687 46.6509 94.1258 46.4374 94.4702 46.4397 93.1414 46.5265 91.7841 46.5871 90.4552 46.6489 89.1167 46.7354 87.7133 46.698 86.3756 46.6671 85.2741 46.6223 84.1723 46.5287 83.0735 46.4655 82.3289 46.3952 81.4598 46.1653 80.7491L46.012 80.276V82.2654L46.0225 87.2376C46.0199 87.2413 46.0168 87.2447 46.0142 87.2461 45.9431 87.2189 45.9009 86.7294 45.8963 86.6718 45.8382 85.928 45.8461 85.1258 45.8365 84.378 45.826 83.5622 45.822 82.7473 45.8152 81.9286L45.8084 81.8532C45.8059 81.8425 45.8031 81.8311 45.8005 81.8206L45.7191 81.4603 45.6469 81.8223C45.6092 82.0108 45.5672 82.1976 45.5434 82.3895L45.4844 82.9511 45.4986 85.7546 45.4989 89.329C45.4983 89.3324 45.4978 89.3364 45.4966 89.3421 45.4476 88.9605 45.2948 87.6305 45.2948 87.493 45.2948 86.2101 45.2341 84.92 45.2472 83.6427L45.2477 83.6031H45.2458L45.4997 79.4806 45.3546 79.4659 45.3419 79.5373C45.216 80.2502 45.1009 80.9643 45.0167 81.6817 44.964 81.9731 44.8722 82.2594 44.7661 82.5443L44.2111 86.3385 43.4083 90.8042C43.4069 90.807 43.4044 90.8118 43.4015 90.8155 43.3624 90.6936 43.4126 90.1318 43.4197 90.0558 43.5002 89.1904 43.6765 88.2646 43.8216 87.4054 43.9841 86.4442 44.1524 85.4841 44.3273 84.5198L44.3835 83.4579 44.2964 83.6634C44.2208 83.8403 44.1468 84.0197 44.0796 84.2017 43.5342 85.8373 42.7277 87.3672 42.0721 88.9588 42.1869 87.9542 42.8352 86.6222 43.1742 85.6726 43.5399 84.5756 43.9645 83.3981 44.0898 82.2458L44.1329 81.8478 43.9424 82.1996C43.7202 82.6109 43.5626 83.0563 43.3891 83.4888 43.2091 83.9395 43.039 84.3936 42.8525 84.8398 41.1729 88.3191 38.9934 93.5994 40.3906 97.4421 40.6973 98.3619 41.3756 99.3268 42.4613 99.2701 43.5362 99.1349 44.4739 98.3327 45.5632 98.3327 46.5537 98.2743 47.6532 98.9376 48.5393 99.3268 50.6307 100.2475 52.6346 98.4336 53.5374 96.6852 54.5661 94.6922 54.3767 92.0052 53.8903 89.8812 53.6363 88.772 53.3619 87.6013 52.7649 86.6203 52.3242 85.8946 51.808 85.2185 51.3717 84.4917 50.9071 83.6209 50.5882 82.6705 50.0233 81.8549 49.5598 81.159 49.0249 80.1748 48.4095 79.6232L48.2139 79.448 48.2811 79.7017C48.4393 80.3004 48.6882 80.8747 48.928 81.4442 49.2851 82.292 49.6638 83.1302 50.0272 83.9755 50.4397 84.9336 50.8666 85.9005 51.1671 86.9017L51.1707 86.9153C51.2065 87.0352 51.2391 87.1554 51.2719 87.2768 51.5049 88.1359 51.7833 89.1819 51.8635 90.0649 51.8749 90.1871 51.9375 90.9595 51.9055 91.1789ZM55.4564 86.4952C54.2968 85.7962 53.096 84.3939 52.3063 83.3173 51.8289 82.6665 51.4256 81.9663 51.0202 81.2713L50.0185 79.4463C49.9946 79.4154 49.9737 79.382 49.9467 79.3522L49.9289 79.3329 49.9025 79.3281C49.8852 79.3247 49.8645 79.3142 49.8495 79.3057L49.6979 79.2184 49.7333 79.3894C50.0482 80.9164 50.4249 81.6953 51.2836 82.9828 51.8253 83.8607 52.2746 84.7899 52.7564 85.7018 53.2477 86.6316 53.9223 87.423 54.6248 88.1986 55.7459 89.39 57.0413 90.5255 58.5522 91.1877 60.215 91.9176 62.6332 92.1495 64.2467 91.1871 64.8584 90.8223 65.3012 90.373 65.5279 89.6856 65.6938 89.1836 65.7278 88.6501 65.7981 88.1291 65.8834 87.4933 66.0214 86.8986 66.3032 86.3186 67.2911 84.1572 69.1135 84.8597 66.651 82.3198 65.0993 80.7199 60.0772 78.0423 57.8974 77.4505L57.5844 77.3651 57.8239 77.5843C58.0861 77.8232 59.603 78.3836 60.0111 78.5667 60.4877 78.7796 62.0164 79.4534 61.9384 80.1295 61.3199 79.6127 60.5594 79.2133 59.853 78.8312 59.3116 78.5387 58.7636 78.2583 58.2106 77.9822 57.1592 77.5434 55.2481 76.7307 54.1545 76.6242L53.6598 76.5757 57.4954 78.2461C57.704 78.3505 57.9144 78.4247 58.14 78.4811 58.2225 78.5608 58.3483 78.5815 58.449 78.6614 58.5884 78.7099 58.5108 78.9253 58.5663 79.0226L52.293 76.3058 52.2258 76.426 52.2808 76.4671C53.1624 77.1276 54.1363 77.6636 55.1064 78.1804 56.0727 78.6954 57.0566 79.1773 58.0334 79.6725 58.3435 79.8301 58.6573 79.9778 58.9643 80.1422L63.4887 82.2217C63.5553 82.2643 63.8206 82.4462 63.7909 82.5403 63.7662 82.6174 63.0437 82.3391 62.983 82.3099 61.6207 81.6576 60.118 81.0564 58.7336 80.4421 58.335 80.2763 57.9447 80.0912 57.5549 79.9075 55.5625 78.9661 53.5025 77.7614 51.5378 76.7248L51.6566 76.9425C52.0121 77.5933 52.7613 78.1421 53.3378 78.5968 53.8064 78.9661 54.2531 79.3621 54.6982 79.7587 55.4562 80.4356 56.2385 81.0774 57.0841 81.6406 57.42 81.885 57.7862 82.0916 58.1391 82.3093L58.1805 82.3348C59.5449 83.1872 60.9871 84.0767 62.3971 84.8429 62.4801 84.8874 63.0369 85.191 63.1993 85.3194 63.0099 85.2775 62.4864 85.0666 62.4047 85.0334 61.6864 84.7434 60.9165 84.2992 60.2393 83.9171 59.4369 83.4647 58.591 82.9888 57.8183 82.4893L57.7987 82.4771C56.1283 81.4348 54.671 80.0756 53.1249 78.8652 52.7732 78.5721 52.4211 78.279 52.0696 77.9856 51.3808 77.4116 50.8198 76.6709 50.0502 76.1975L49.8356 76.0649 49.9374 76.2956C50.275 77.0601 51.1172 77.8082 51.639 78.4794 52.1186 79.0191 52.6575 79.501 53.1232 80.0592 53.4033 80.3701 53.6868 80.678 53.9742 80.9821 54.2143 81.2347 54.5253 81.5805 54.7997 81.7914 55.0066 81.9499 55.2671 82.1823 55.2869 82.4686 55.1891 82.4882 54.6545 82.0142 54.5627 81.9289 54.2608 81.6508 53.9467 81.2809 53.6672 80.9756 53.3633 80.6437 53.0606 80.3103 52.7593 79.9764L52.7562 79.9733C52.4852 79.7088 52.2247 79.4361 51.961 79.1649 51.5489 78.7399 51.1401 78.3096 50.7572 77.8575L50.7124 77.8054 50.5964 77.8808 50.6265 77.9428C50.991 78.6986 51.548 79.3854 52.0461 80.0575 52.6493 80.8722 53.3506 81.6015 54.0394 82.3436 54.9096 83.2399 55.8893 84.0183 56.9024 84.7451 57.3925 85.0966 58.2299 85.5865 58.6247 86.0426 56.1552 85.1026 52.8678 81.5139 51.2529 79.4534 50.8263 78.8666 49.9439 77.2444 49.4169 76.9133L49.2681 76.82 49.2979 76.9932C49.4116 77.6574 50.1795 79.0106 50.5176 79.647 50.9681 80.4954 51.4185 81.3489 51.9267 82.1616 52.6209 83.3567 53.5382 84.4588 54.5255 85.434 54.754 85.659 54.9978 85.8682 55.2464 86.0717 55.3552 86.1602 55.3643 86.379 55.4564 86.4952ZM58.6738 67.1822 57.5597 67.5011 57.583 67.6397 57.653 67.6358C59.633 67.5306 61.5461 66.8889 63.536 66.8889 64.6486 66.8889 65.5886 67.227 66.6533 67.4651L66.7057 67.4768 66.7358 67.4323C67.8214 65.8202 65.338 63.8756 64.0695 63.2866 62.3129 62.4711 60.404 62.0484 58.5635 61.4704 55.9749 60.6569 55.3912 61.3366 53.8033 63.2908 53.2519 63.9689 52.7196 64.6605 52.1677 65.336 51.6061 65.8981 50.8887 66.2746 50.3385 66.8514L50.0814 67.1207 50.4252 66.9781C51.0698 66.7108 51.6648 66.2769 52.2488 65.8984 53.1507 65.3145 54.0652 64.7393 55.0525 64.309 55.7541 64.0026 56.4959 63.7693 57.2598 63.6919 57.4699 63.6712 57.6811 63.6613 57.8923 63.6661 57.5444 63.7931 57.2525 63.9386 56.8956 64.0346 56.2365 64.2115 55.6138 64.402 54.9774 64.6512 54.0748 65.0225 53.2772 65.6473 52.3698 66.0042L52.2298 66.0591 52.3689 66.1416 52.3891 66.1314C53.9946 65.3119 55.7325 64.8544 57.5028 64.5562 57.6734 64.5282 58.4722 64.4386 58.6264 64.5968 58.5706 64.6316 58.3251 64.8252 58.2715 64.8303 56.4358 65.0375 54.2886 65.5948 52.5705 66.2791L50.2872 67.2732C50.2322 67.3106 50.1055 67.39 50.074 67.4549 50.0695 67.4739 50.0649 67.4929 50.0593 67.5122L50.0199 67.6502 50.1574 67.6091C50.781 67.4206 51.3615 67.1196 51.9625 66.873 53.0745 66.4163 54.2248 66.0784 55.402 65.8335 56.3233 65.6172 60.7714 64.9066 61.5699 65.1787 61.1467 65.4542 58.7696 65.5174 58.2038 65.569 55.9525 65.8573 51.2824 67.0691 49.663 68.6602L49.6454 68.6775 49.6412 68.701 49.6043 68.8204 50.7291 68.6361C51.1917 68.379 51.16 68.0998 51.6441 67.8694 52.501 67.46 53.8727 67.1865 54.7951 66.9705 55.6407 66.7726 56.5004 66.6167 57.3579 66.4812 58.8937 66.2377 60.6594 65.9908 62.214 65.9616 62.3585 65.9597 63.29 65.9625 63.4878 66.0455 63.343 66.0917 62.7973 66.1003 62.7114 66.1005 61.9087 66.1076 60.9956 66.2309 60.1982 66.3307 58.8617 66.4985 57.524 66.7106 56.2022 66.9705 54.5879 67.2885 52.446 67.7582 50.9879 68.5191L50.7719 68.631 51.7689 68.4697C52.5481 68.3436 53.3305 68.2384 54.1108 68.1182 55.6435 67.8821 57.1119 67.2151 58.6738 67.1822ZM48.5308 66.0152C48.5555 65.982 48.5804 65.9483 48.602 65.9186 48.9334 65.4525 49.3478 64.9743 49.7174 64.5372 50.0533 64.1395 50.434 63.6763 50.8144 63.3234 51.3785 62.8004 52.0058 62.3035 52.6017 61.8214 52.6368 61.8049 52.7862 61.7409 52.8197 61.7573 52.8219 61.7788 52.7692 61.8423 52.7567 61.8576 52.2899 62.4526 51.7031 62.9402 51.1325 63.4314 50.6356 63.86 50.1775 64.3144 49.7529 64.8145 49.4926 65.12 49.2506 65.4534 48.9818 65.7488 48.6442 66.1195 48.46 66.399 48.217 66.829L48.2 66.8582 48.255 66.9002 48.2791 66.8755C48.3528 66.8001 48.4271 66.7261 48.4991 66.6493 49.953 65.1027 51.3459 63.0439 53.371 62.2196L53.4226 62.1989 53.4197 62.1425C53.3673 61.088 53.1751 60.5534 52.1243 60.1829 51.1594 59.8212 50.5015 59.8416 49.5343 60.1829 48.3803 60.622 47.5075 61.1518 46.6614 62.0586 44.0175 64.7626 39.0869 62.8177 43.3791 68.2863 43.6306 68.6222 43.7227 68.938 44.1159 69.1557L44.3069 69.2617 42.908 65.7065C43.2643 66.0745 43.5521 66.7794 43.7423 67.2338 43.9483 67.7259 44.2341 68.5675 44.5774 68.9562L44.617 69.0012 44.9918 68.8144 44.5799 66.4024C44.562 66.2899 44.4518 65.7442 44.4963 65.6821 44.5113 65.6833 44.5289 65.6991 44.5589 65.6994H44.5774L44.5944 65.6918C44.6049 65.6867 44.6128 65.6807 44.6196 65.6736 44.8109 66.0711 44.896 66.6765 44.9583 67.1122L45.195 68.2911C45.2242 68.3702 45.2494 68.451 45.2772 68.5307L45.2928 68.5743 45.3385 68.5826C45.3484 68.5843 45.3591 68.5882 45.3679 68.5933L45.4589 68.6409 45.481 68.5403C45.6911 67.5955 45.3796 64.9066 45.7804 64.2285L45.8991 66.3698 46.0315 66.0937C46.6041 64.8989 46.5423 62.5708 47.7349 61.8265 46.6226 63.5995 46.2237 66.3766 46.0199 68.4286L46.0097 68.5315 46.1112 68.5142C46.184 68.5015 46.2572 68.4887 46.3289 68.4714L46.4284 68.4465 46.3785 68.3566C46.3632 68.3291 46.3791 68.3065 46.3972 68.2693 46.4848 67.7806 46.5228 67.2817 46.6478 66.8004 46.7614 66.363 46.8805 65.6484 47.0534 65.2314 47.3573 64.4978 47.4191 63.5822 48.0002 63.1828 47.9752 63.4918 47.7703 64.0125 47.6785 64.2937 47.4667 64.9409 47.2586 65.5897 47.1016 66.2533 47.0356 66.5325 46.978 66.814 46.9352 67.0983L46.8641 67.5711 47.0826 67.1462C47.34 66.6459 47.6067 66.1513 47.8599 65.645 48.109 65.0214 48.509 64.4669 48.8537 63.8926 49.3982 62.9121 50.2206 61.4197 51.0392 60.6518 50.8649 61.5158 49.8407 62.4546 49.4666 63.2976 49.1151 64.2115 46.948 67.7203 46.9511 68.2364 46.9545 68.2486 46.957 68.2614 46.9593 68.2744L46.9701 68.3391 47.0356 68.3396C47.0577 68.3402 47.0798 68.343 47.1016 68.3461L47.1478 68.3532 47.1762 68.3155C47.3304 68.1131 47.4936 67.9022 47.5937 67.6661 47.6133 67.621 47.651 67.5697 47.6841 67.5252L48.5328 66.0166ZM40.297 68.2245C40.29 68.2007 40.333 68.1304 40.3398 68.1168 40.3483 68.1165 40.3659 68.1321 40.3727 68.1358 40.555 68.252 41.1168 69.1727 41.2033 69.4043 41.3592 69.8224 41.5556 70.3854 41.6631 70.833L41.6704 70.8627 41.6656 70.8956C41.6837 70.9075 41.6687 70.9673 41.6923 70.9894 41.7115 71.0002 41.73 71.0121 41.7481 71.0249L41.9083 71.1388 41.8706 70.9461C41.5823 69.4641 40.845 67.0796 39.5067 66.2326L39.4707 66.2102 39.4319 66.2275C39.0059 66.422 38.8797 66.7332 38.6365 67.0983 38.0492 67.9791 37.529 68.9516 37.23 69.9695 37.1506 70.2167 37.0372 70.526 36.8005 70.6632 36.544 70.8114 35.9603 70.8038 35.6559 70.8372 34.78 70.9316 33.946 71.1969 33.1393 71.5425 32.1897 71.9495 30.7366 72.7211 30.67 73.8986 30.4974 76.9657 34.9342 74.8108 36.3138 74.3825 36.6724 74.2632 36.9122 74.2521 37.101 73.878L37.1582 73.7637 33.0639 73.8609 33.0633 73.7393C34.2252 73.6744 37.6078 73.4842 38.5268 73.0692L38.6005 73.0358 38.5651 72.9629C38.5591 72.951 38.5586 72.9408 38.5605 72.9283L38.5727 72.8583 38.5044 72.8393C38.3814 72.8053 38.2527 72.7917 38.1271 72.771 37.9939 72.7072 37.639 72.7126 37.4882 72.7129 37.0633 72.6426 36.6216 72.6681 36.1964 72.6021 36.6554 72.3334 38.3241 72.5105 38.8596 72.5151L39.1266 72.5168 36.8433 71.0478 36.8702 71.0101 39.2655 72.2429 39.3398 72.1208 39.2834 72.078C39.0657 71.9121 39.075 71.7729 39.0759 71.5277L39.8585 72.0088 39.797 71.8092C39.615 71.2196 38.5727 71.0566 38.6561 70.6683L41.288 71.8946 41.1446 71.6839C40.8158 71.204 40.4731 71.5538 40.4649 70.8236 40.5235 70.8559 40.5836 70.8854 40.6443 70.9143L40.7078 70.9211 40.6919 70.8542C40.3254 70.3882 39.9597 69.9199 39.5875 69.4587 39.5657 69.4315 39.4509 69.2895 39.4597 69.2518 39.4863 69.2413 39.5677 69.2906 39.5889 69.3082 39.7636 69.457 40.062 69.853 40.2168 70.0401 40.3367 70.1858 40.4563 70.3318 40.5743 70.4789 40.6803 70.611 40.7976 70.7944 40.811 70.9688L40.8127 70.9914 40.8336 71.0014C41.04 71.096 41.2206 71.1947 41.3495 71.39L41.3946 71.4577 41.4607 71.4107C41.4819 71.3957 41.5128 71.3789 41.5397 71.384L41.6412 71.403 41.6324 71.3001C41.6242 71.2006 41.6134 71.102 41.6032 70.9963 41.4414 70.3981 41.2095 69.7453 40.947 69.1855 40.8438 68.9652 40.4977 68.3986 40.297 68.2245ZM32.3717 80.5796C31.6054 81.1341 30.4401 82.8405 29.9115 83.6694 27.4649 87.5066 27.8419 90.7194 29.3839 94.8115L30.2142 96.8275 30.2964 96.7107C31.6936 94.7197 33.5806 91.959 32.6931 89.4129 32.1276 87.6543 31.5876 87.0542 31.8733 85.0861 32.0876 83.6104 32.2637 82.1293 32.4955 80.6562L32.5247 80.4696ZM49.3804 80.2125C49.3846 80.2125 49.3889 80.2125 49.3931 80.2123L49.4685 80.204 49.4629 80.1283C49.4575 80.0597 49.4476 79.9914 49.4368 79.9143L48.6116 77.6203 47.9387 78.171 49.339 80.2125ZM42.7334 68.3087 42.673 70.1787 42.7856 70.1323C43.1572 69.9786 43.4398 69.7708 43.6714 69.44L43.706 69.3904 43.0554 68.6205C43.0036 68.5556 42.963 68.4842 42.9012 68.4227 42.8854 68.4096 42.8681 68.3977 42.8508 68.3861ZM48.0841 68.6854C48.5498 68.6154 48.6848 68.5981 48.9146 68.1596L48.9847 68.0261 48.8353 68.0448C48.6077 68.0737 48.5612 68.0859 48.3616 68.2058 48.2598 68.2673 48.1501 68.3158 48.0538 68.3861L48.0161 68.4139 48.0223 68.4598C48.0277 68.5003 48.0158 68.54 48.0002 68.5769L47.9443 68.7064ZM42.1705 70.7754C42.8295 69.5463 42.0854 65.571 40.2851 65.6271 39.9954 65.6532 39.6462 65.8151 39.5782 66.1263L39.5671 66.1759 39.6082 66.2054C40.3064 66.7191 40.8053 67.3483 41.2112 68.108 41.4992 68.6843 41.6625 69.3405 41.8331 69.9735 41.9063 70.2456 41.8861 70.5424 42.0347 70.7797L42.1064 70.8939Z" fill="#e06a6a" fill-rule="evenodd"/>
</g>
</svg>
