<svg xmlns="http://www.w3.org/2000/svg" viewBox="24 13 50 50">
<path transform="matrix(1,0,0,-1,1,117.8648)" d="M63.9816 72.6534C63.8342 72.8053 62.803 72.6735 62.714 72.661 61.8177 72.5312 60.8596 72.4813 59.9547 72.4348 58.9938 72.3852 57.9708 72.3334 57.0098 72.3662 56.0058 72.4014 54.987 72.3866 53.987 72.4734L53.9518 72.4762 53.9504 72.5465 54.129 72.5703C55.5792 72.7571 57.0251 72.9774 58.468 73.2158 59.8666 73.4462 61.2697 73.652 62.6686 73.8848 64.0505 74.1135 65.4817 74.3564 66.846 74.7145 66.9101 74.7147 67.002 74.7181 67.0533 74.7604L67.0671 74.7714 67.0842 74.7763C67.1681 74.7972 67.25 74.806 67.3191 74.8556 65.9211 74.7907 64.48 74.594 63.0958 74.3927 61.6844 74.1883 60.2765 73.9536 58.8719 73.7076 57.3942 73.4488 55.9157 73.1917 54.4258 73.0125 53.388 72.8884 52.3213 72.7826 51.2759 72.8515L51.2056 72.8563 51.1994 72.9958 51.2685 73.0074C52.1118 73.1429 52.9634 73.2146 53.8106 73.3178 54.6341 73.419 55.4618 73.5046 56.2748 73.6812 56.7578 73.7688 57.4537 73.8354 57.8271 74.1866 56.842 74.5639 53.892 73.6948 52.7014 73.6489 52.3905 73.6489 52.0804 73.6489 51.7714 73.6495 51.4709 73.6245 51.2215 73.514 50.9372 73.6863L50.7719 73.7872 50.9604 73.8303C52.4563 74.1733 54.0125 74.0129 55.5129 74.3255 57.0005 74.588 58.4997 74.8346 59.974 75.1643 61.8239 75.5796 63.5984 76.1522 65.3822 76.79 65.6028 76.8694 67.5295 77.5624 67.5958 77.8255 67.415 77.8819 65.5886 77.1381 65.3536 77.0377 64.9621 76.8713 64.5024 76.7429 64.0933 76.6247 63.4802 76.4464 62.8622 76.2826 62.2443 76.1224 61.1181 75.8307 59.9868 75.5524 58.8521 75.2839 57.9373 75.13 57.0623 74.8142 56.16 74.6447 54.9207 74.4114 53.6664 74.2493 52.4041 74.2357L52.1708 74.2331 52.3548 74.3763C52.3684 74.3871 52.3803 74.4012 52.3885 74.4165L52.4021 74.4406 52.4279 74.4508C52.6127 74.526 52.8126 74.5622 53.0048 74.6118 53.4098 74.7164 53.8316 74.6671 54.2341 74.7714 55.3989 75.0711 56.56 75.3866 57.7077 75.746 58.4215 75.9696 60.4497 76.568 61.147 76.8385 61.8058 77.0941 61.9447 77.1625 61.8126 77.3351 61.3803 77.2551 60.899 77.1032 60.4865 76.9825 60.0109 76.8424 59.538 76.695 59.0638 76.5493 58.1142 76.2585 57.1654 75.9637 56.2096 75.693 54.9686 75.3415 53.3968 74.8689 52.1107 74.8675H51.7045L52.0812 75.0192C53.3871 75.5447 54.7597 75.8704 56.0923 76.3143 59.455 77.5828 62.6675 78.8669 65.6351 80.9393 66.2604 81.3762 66.6879 81.9283 67.4909 82.0505L67.5213 82.0556 67.5465 82.0383C68.37 81.4932 69.4522 80.5504 70.0481 79.7652 70.9007 78.6413 71.1711 77.6364 71.223 76.244 71.3166 74.6736 71.5652 72.4141 70.8866 70.9671 70.4809 70.1019 69.7754 69.4845 68.9919 68.9683 66.3055 67.1173 63.8651 67.8844 60.899 68.2622 59.8669 68.394 58.8249 68.4218 57.7857 68.4541 56.2932 68.4992 53.9198 68.4816 52.5793 69.1135L52.1898 69.2974 52.619 69.2631C53.5734 69.1863 54.4995 68.8932 55.4562 68.8419 57.0345 68.7577 58.6128 68.6721 60.192 68.6052 61.2213 68.5621 62.2491 68.6775 63.2784 68.6616 63.9286 68.6517 64.5888 68.6254 65.2374 68.6911 62.7194 69.1262 60.0103 68.9814 57.458 69.0613 55.1974 69.1792 52.9617 69.4585 50.7651 70.0194 50.6492 70.052 50.2106 70.1583 50.1644 70.2768 50.1593 70.3375 50.1724 70.4018 50.1715 70.4619L50.171 70.5203 50.2265 70.5379C50.8414 70.7306 53.8197 70.0838 54.6953 69.9919 56.2365 69.8309 57.81 69.7558 59.3586 69.7022 60.9111 69.6475 62.4779 69.6166 64.0284 69.6492L64.2016 69.6767 64.0962 69.7272C63.7554 69.8635 62.1346 69.8618 61.7134 69.8669 60.9239 69.8771 60.1336 69.8652 59.345 69.8754 58.4714 69.8865 57.4702 69.8301 56.6116 70.0228L55.7172 70.4069 59.0272 70.23C58.7605 70.3933 58.3809 70.4353 58.0799 70.4665L58.0076 70.4738 58.0113 70.6195 58.0842 70.6229C59.1491 70.6774 60.205 70.4687 61.2689 70.4616 62.4098 70.4531 64.2841 70.5129 65.3689 70.8585 64.9188 71.0614 62.4263 70.8386 61.8381 70.8386 60.016 70.8386 58.1902 70.9639 56.3732 71.0901 55.2875 71.1649 54.2021 71.2519 53.1215 71.3809 52.4611 71.4597 51.6118 71.5436 50.9933 71.7766L50.5191 71.9549 51.025 71.9283C51.2906 71.9138 51.5602 71.9546 51.8253 71.9291 52.4273 71.871 53.0212 71.7525 53.6236 71.6953 54.0901 71.6516 56.0591 71.4283 56.431 71.5666L56.463 71.634 51.8227 72.0218C51.5835 72.0655 51.3612 71.9546 51.1586 72.1443L51.0208 72.2738 51.2096 72.2803C51.7048 72.2974 52.1989 72.339 52.7003 72.3923 54.3903 72.1879 56.1118 72.1185 57.8132 72.1253 59.8059 72.1332 62.0045 72.3231 63.9816 72.6534ZM36.2996 88.1277 38.7031 82.5287 39.4886 80.7769C39.9093 79.7207 40.7758 78.0786 41.6197 77.3311L41.6628 77.2931 41.6387 77.2384 41.6117 77.1854 41.5749 77.2106C41.127 77.5091 40.6678 77.9808 40.2999 78.3697 39.1915 79.5424 38.1637 82.4479 37.5333 83.9789 37.4859 84.0818 36.9731 84.5289 36.8643 84.6972 36.8646 84.6955 36.8649 84.6941 36.8651 84.6935 36.9116 84.4682 37.0176 84.1963 37.1061 83.986 37.4618 83.1424 37.8394 82.3039 38.2311 81.4774 38.6096 80.6774 39.2196 79.3366 39.7709 78.6645 40.0932 78.2719 40.4385 77.9014 40.8308 77.5777 41.0465 77.3994 41.292 77.2398 41.4961 77.0533L41.5185 77.0326 41.0562 76.1587 40.9884 76.191C40.5111 76.4189 39.1612 77.5706 38.8114 77.9905 37.2132 80.0802 37.0791 82.1546 36.4422 84.5901 36.3237 85.0433 36.1854 85.4909 36.0136 85.928L36.0116 85.9331C35.7979 86.5397 35.318 87.8411 34.9123 88.302 34.8959 88.3208 34.8352 88.3894 34.7859 88.4378 34.8613 88.2578 34.9274 87.8244 34.9637 87.7431 35.1128 87.4089 36.0408 84.7502 36.1103 84.4432 36.4017 83.1569 36.5998 81.8461 36.9933 80.5847 37.3054 79.5852 37.9483 78.656 38.4701 77.7526L38.7136 77.3308 38.3499 77.6548C38.0704 77.9034 37.7938 78.1571 37.4859 78.3876 37.4777 78.3981 37.472 78.4089 37.4689 78.4191 37.4377 78.459 37.3822 78.5123 37.3484 78.5483 36.7583 79.1787 36.0743 80.1714 35.6108 80.8963 35.3242 81.3438 35.045 81.8186 34.8307 82.3048 34.3641 83.3635 33.9775 84.651 33.7326 85.784L33.5089 85.9048C33.7419 84.2292 34.4324 81.8402 35.5346 80.5569 35.9354 80.0892 36.3226 79.6122 36.6831 79.1124 36.8952 78.819 37.0939 78.5154 37.3085 78.224 37.508 77.9545 37.7206 77.7115 37.9607 77.4734 38.1917 77.2194 38.4364 76.9793 38.6855 76.7429 38.8023 76.6324 38.9256 76.5286 39.0404 76.4155L39.2669 76.1941 38.9631 76.2849C38.1577 76.5252 37.474 76.9357 36.8391 77.4814 36.3266 77.9207 35.7885 78.5925 35.2304 78.9579 36.1349 77.5352 37.5676 76.263 39.113 75.5926L39.1808 75.5631 39.1303 75.4243 39.0597 75.4452C38.2022 75.6955 37.3737 76.0348 36.536 76.3435 35.1394 76.8577 34.7703 76.9014 33.9506 78.2257 32.5851 80.6156 32.6486 82.5902 32.2512 85.1978 31.8226 88.0095 34.111 89.4603 33.1305 92.4551 32.7229 93.6303 32.0757 94.6562 31.3965 95.6889 31.045 96.2223 30.3846 97.143 30.5116 97.8083 30.5283 97.8973 30.5586 97.9826 30.5991 98.0634L30.6162 98.0974 30.6539 98.1045C32.6738 98.5056 34.609 96.5248 35.678 95.0454 36.771 93.4384 37.5681 91.6571 38.4883 89.9515 39.3443 88.3641 39.8829 86.7319 40.2537 84.9716 40.5578 83.5262 40.7959 82.0658 41.1829 80.6394 41.4941 79.6521 42.0503 78.7592 42.3261 77.7591L42.3635 77.6231 42.2286 77.6631C41.8243 77.781 41.9236 77.7889 41.6231 78.0471 40.9144 78.7249 40.6046 79.4582 40.121 80.3015L40.0564 80.4146C39.8812 80.7559 39.7208 81.1426 39.562 81.4935 39.2221 82.2444 38.8865 82.9981 38.5574 83.7541 38.3553 84.2173 38.1557 84.6825 37.961 85.1496 37.853 85.4087 36.6557 87.8017 36.2996 88.1277ZM51.9055 91.1789C51.8511 91.0324 51.7748 90.6097 51.7623 90.5403 51.535 89.2641 51.1588 87.9038 50.8065 86.6463 50.5962 86.0788 50.3918 85.5094 50.182 84.9413 49.8178 83.9531 49.4549 82.8099 48.8993 81.9173L48.6706 81.5496 48.7556 81.974C48.9702 83.0463 49.4742 84.1708 49.5249 85.2763 49.2194 85.1601 49.0442 84.2363 48.9016 83.8091 48.7046 83.217 48.6079 82.5182 48.4432 81.9139 48.234 81.2874 47.9889 80.6737 47.7978 80.0376 47.6623 79.706 47.3933 78.8822 47.1506 78.6591 47.0795 78.5934 46.9936 78.5446 46.9066 78.5032L46.7668 78.4363 46.9497 79.4106 46.9664 79.4282C47.0509 79.5146 47.1146 79.5974 47.1796 79.6935L47.4752 80.458C47.5824 80.8333 47.704 81.2018 47.8267 81.5706 48.0084 82.2986 48.2445 83.0103 48.4135 83.7422 48.757 85.0589 49.1973 86.3841 49.3574 87.7408L49.693 90.1057C49.4589 89.5689 49.1287 87.5786 49.0929 87.3564L48.8537 86.3654C48.6791 85.7265 48.5651 85.0725 48.386 84.435 48.1209 83.4922 47.7808 82.5741 47.4914 81.6392L47.4695 81.5695 47.327 81.6029 47.3389 81.6752C47.8032 84.5342 48.348 87.3958 48.4688 90.2962 48.4174 90.2174 48.369 90.14 48.3265 90.0544L47.1563 82.446C47.0854 81.9836 46.9655 80.7406 46.7736 80.3891L46.6948 80.2451 46.6322 80.3968C46.616 80.4356 46.6058 80.4773 46.5962 80.5263 46.5968 81.4501 46.8247 82.3524 46.8907 83.274 47.0696 84.526 47.0679 85.809 47.0733 87.0724 47.0778 88.1025 47.0288 89.1547 46.9837 90.1845 46.9392 91.2098 46.8998 92.2725 46.7943 93.2916 46.745 93.687 46.6509 94.1258 46.4374 94.4702 46.4397 93.1414 46.5265 91.7841 46.5871 90.4552 46.6489 89.1167 46.7354 87.7133 46.698 86.3756 46.6671 85.2741 46.6223 84.1723 46.5287 83.0735 46.4655 82.3289 46.3952 81.4598 46.1653 80.7491L46.012 80.276V82.2654L46.0225 87.2376C46.0199 87.2413 46.0168 87.2447 46.0142 87.2461 45.9431 87.2189 45.9009 86.7294 45.8963 86.6718 45.8382 85.928 45.8461 85.1258 45.8365 84.378 45.826 83.5622 45.822 82.7473 45.8152 81.9286L45.8084 81.8532C45.8059 81.8425 45.8031 81.8311 45.8005 81.8206L45.7191 81.4603 45.6469 81.8223C45.6092 82.0108 45.5672 82.1976 45.5434 82.3895L45.4844 82.9511 45.4986 85.7546 45.4989 89.329C45.4983 89.3324 45.4978 89.3364 45.4966 89.3421 45.4476 88.9605 45.2948 87.6305 45.2948 87.493 45.2948 86.2101 45.2341 84.92 45.2472 83.6427L45.2477 83.6031H45.2458L45.4997 79.4806 45.3546 79.4659 45.3419 79.5373C45.216 80.2502 45.1009 80.9643 45.0167 81.6817 44.964 81.9731 44.8722 82.2594 44.7661 82.5443L44.2111 86.3385 43.4083 90.8042C43.4069 90.807 43.4044 90.8118 43.4015 90.8155 43.3624 90.6936 43.4126 90.1318 43.4197 90.0558 43.5002 89.1904 43.6765 88.2646 43.8216 87.4054 43.9841 86.4442 44.1524 85.4841 44.3273 84.5198L44.3835 83.4579 44.2964 83.6634C44.2208 83.8403 44.1468 84.0197 44.0796 84.2017 43.5342 85.8373 42.7277 87.3672 42.0721 88.9588 42.1869 87.9542 42.8352 86.6222 43.1742 85.6726 43.5399 84.5756 43.9645 83.3981 44.0898 82.2458L44.1329 81.8478 43.9424 82.1996C43.7202 82.6109 43.5626 83.0563 43.3891 83.4888 43.2091 83.9395 43.039 84.3936 42.8525 84.8398 41.1729 88.3191 38.9934 93.5994 40.3906 97.4421 40.6973 98.3619 41.3756 99.3268 42.4613 99.2701 43.5362 99.1349 44.4739 98.3327 45.5632 98.3327 46.5537 98.2743 47.6532 98.9376 48.5393 99.3268 50.6307 100.2475 52.6346 98.4336 53.5374 96.6852 54.5661 94.6922 54.3767 92.0052 53.8903 89.8812 53.6363 88.772 53.3619 87.6013 52.7649 86.6203 52.3242 85.8946 51.808 85.2185 51.3717 84.4917 50.9071 83.6209 50.5882 82.6705 50.0233 81.8549 49.5598 81.159 49.0249 80.1748 48.4095 79.6232L48.2139 79.448 48.2811 79.7017C48.4393 80.3004 48.6882 80.8747 48.928 81.4442 49.2851 82.292 49.6638 83.1302 50.0272 83.9755 50.4397 84.9336 50.8666 85.9005 51.1671 86.9017L51.1707 86.9153C51.2065 87.0352 51.2391 87.1554 51.2719 87.2768 51.5049 88.1359 51.7833 89.1819 51.8635 90.0649 51.8749 90.1871 51.9375 90.9595 51.9055 91.1789ZM55.4564 86.4952C54.2968 85.7962 53.096 84.3939 52.3063 83.3173 51.8289 82.6665 51.4256 81.9663 51.0202 81.2713L50.0185 79.4463C49.9946 79.4154 49.9737 79.382 49.9467 79.3522L49.9289 79.3329 49.9025 79.3281C49.8852 79.3247 49.8645 79.3142 49.8495 79.3057L49.6979 79.2184 49.7333 79.3894C50.0482 80.9164 50.4249 81.6953 51.2836 82.9828 51.8253 83.8607 52.2746 84.7899 52.7564 85.7018 53.2477 86.6316 53.9223 87.423 54.6248 88.1986 55.7459 89.39 57.0413 90.5255 58.5522 91.1877 60.215 91.9176 62.6332 92.1495 64.2467 91.1871 64.8584 90.8223 65.3012 90.373 65.5279 89.6856 65.6938 89.1836 65.7278 88.6501 65.7981 88.1291 65.8834 87.4933 66.0214 86.8986 66.3032 86.3186 67.2911 84.1572 69.1135 84.8597 66.651 82.3198 65.0993 80.7199 60.0772 78.0423 57.8974 77.4505L57.5844 77.3651 57.8239 77.5843C58.0861 77.8232 59.603 78.3836 60.0111 78.5667 60.4877 78.7796 62.0164 79.4534 61.9384 80.1295 61.3199 79.6127 60.5594 79.2133 59.853 78.8312 59.3116 78.5387 58.7636 78.2583 58.2106 77.9822 57.1592 77.5434 55.2481 76.7307 54.1545 76.6242L53.6598 76.5757 57.4954 78.2461C57.704 78.3505 57.9144 78.4247 58.14 78.4811 58.2225 78.5608 58.3483 78.5815 58.449 78.6614 58.5884 78.7099 58.5108 78.9253 58.5663 79.0226L52.293 76.3058 52.2258 76.426 52.2808 76.4671C53.1624 77.1276 54.1363 77.6636 55.1064 78.1804 56.0727 78.6954 57.0566 79.1773 58.0334 79.6725 58.3435 79.8301 58.6573 79.9778 58.9643 80.1422L63.4887 82.2217C63.5553 82.2643 63.8206 82.4462 63.7909 82.5403 63.7662 82.6174 63.0437 82.3391 62.983 82.3099 61.6207 81.6576 60.118 81.0564 58.7336 80.4421 58.335 80.2763 57.9447 80.0912 57.5549 79.9075 55.5625 78.9661 53.5025 77.7614 51.5378 76.7248L51.6566 76.9425C52.0121 77.5933 52.7613 78.1421 53.3378 78.5968 53.8064 78.9661 54.2531 79.3621 54.6982 79.7587 55.4562 80.4356 56.2385 81.0774 57.0841 81.6406 57.42 81.885 57.7862 82.0916 58.1391 82.3093L58.1805 82.3348C59.5449 83.1872 60.9871 84.0767 62.3971 84.8429 62.4801 84.8874 63.0369 85.191 63.1993 85.3194 63.0099 85.2775 62.4864 85.0666 62.4047 85.0334 61.6864 84.7434 60.9165 84.2992 60.2393 83.9171 59.4369 83.4647 58.591 82.9888 57.8183 82.4893L57.7987 82.4771C56.1283 81.4348 54.671 80.0756 53.1249 78.8652 52.7732 78.5721 52.4211 78.279 52.0696 77.9856 51.3808 77.4116 50.8198 76.6709 50.0502 76.1975L49.8356 76.0649 49.9374 76.2956C50.275 77.0601 51.1172 77.8082 51.639 78.4794 52.1186 79.0191 52.6575 79.501 53.1232 80.0592 53.4033 80.3701 53.6868 80.678 53.9742 80.9821 54.2143 81.2347 54.5253 81.5805 54.7997 81.7914 55.0066 81.9499 55.2671 82.1823 55.2869 82.4686 55.1891 82.4882 54.6545 82.0142 54.5627 81.9289 54.2608 81.6508 53.9467 81.2809 53.6672 80.9756 53.3633 80.6437 53.0606 80.3103 52.7593 79.9764L52.7562 79.9733C52.4852 79.7088 52.2247 79.4361 51.961 79.1649 51.5489 78.7399 51.1401 78.3096 50.7572 77.8575L50.7124 77.8054 50.5964 77.8808 50.6265 77.9428C50.991 78.6986 51.548 79.3854 52.0461 80.0575 52.6493 80.8722 53.3506 81.6015 54.0394 82.3436 54.9096 83.2399 55.8893 84.0183 56.9024 84.7451 57.3925 85.0966 58.2299 85.5865 58.6247 86.0426 56.1552 85.1026 52.8678 81.5139 51.2529 79.4534 50.8263 78.8666 49.9439 77.2444 49.4169 76.9133L49.2681 76.82 49.2979 76.9932C49.4116 77.6574 50.1795 79.0106 50.5176 79.647 50.9681 80.4954 51.4185 81.3489 51.9267 82.1616 52.6209 83.3567 53.5382 84.4588 54.5255 85.434 54.754 85.659 54.9978 85.8682 55.2464 86.0717 55.3552 86.1602 55.3643 86.379 55.4564 86.4952ZM58.6738 67.1822 57.5597 67.5011 57.583 67.6397 57.653 67.6358C59.633 67.5306 61.5461 66.8889 63.536 66.8889 64.6486 66.8889 65.5886 67.227 66.6533 67.4651L66.7057 67.4768 66.7358 67.4323C67.8214 65.8202 65.338 63.8756 64.0695 63.2866 62.3129 62.4711 60.404 62.0484 58.5635 61.4704 55.9749 60.6569 55.3912 61.3366 53.8033 63.2908 53.2519 63.9689 52.7196 64.6605 52.1677 65.336 51.6061 65.8981 50.8887 66.2746 50.3385 66.8514L50.0814 67.1207 50.4252 66.9781C51.0698 66.7108 51.6648 66.2769 52.2488 65.8984 53.1507 65.3145 54.0652 64.7393 55.0525 64.309 55.7541 64.0026 56.4959 63.7693 57.2598 63.6919 57.4699 63.6712 57.6811 63.6613 57.8923 63.6661 57.5444 63.7931 57.2525 63.9386 56.8956 64.0346 56.2365 64.2115 55.6138 64.402 54.9774 64.6512 54.0748 65.0225 53.2772 65.6473 52.3698 66.0042L52.2298 66.0591 52.3689 66.1416 52.3891 66.1314C53.9946 65.3119 55.7325 64.8544 57.5028 64.5562 57.6734 64.5282 58.4722 64.4386 58.6264 64.5968 58.5706 64.6316 58.3251 64.8252 58.2715 64.8303 56.4358 65.0375 54.2886 65.5948 52.5705 66.2791L50.2872 67.2732C50.2322 67.3106 50.1055 67.39 50.074 67.4549 50.0695 67.4739 50.0649 67.4929 50.0593 67.5122L50.0199 67.6502 50.1574 67.6091C50.781 67.4206 51.3615 67.1196 51.9625 66.873 53.0745 66.4163 54.2248 66.0784 55.402 65.8335 56.3233 65.6172 60.7714 64.9066 61.5699 65.1787 61.1467 65.4542 58.7696 65.5174 58.2038 65.569 55.9525 65.8573 51.2824 67.0691 49.663 68.6602L49.6454 68.6775 49.6412 68.701 49.6043 68.8204 50.7291 68.6361C51.1917 68.379 51.16 68.0998 51.6441 67.8694 52.501 67.46 53.8727 67.1865 54.7951 66.9705 55.6407 66.7726 56.5004 66.6167 57.3579 66.4812 58.8937 66.2377 60.6594 65.9908 62.214 65.9616 62.3585 65.9597 63.29 65.9625 63.4878 66.0455 63.343 66.0917 62.7973 66.1003 62.7114 66.1005 61.9087 66.1076 60.9956 66.2309 60.1982 66.3307 58.8617 66.4985 57.524 66.7106 56.2022 66.9705 54.5879 67.2885 52.446 67.7582 50.9879 68.5191L50.7719 68.631 51.7689 68.4697C52.5481 68.3436 53.3305 68.2384 54.1108 68.1182 55.6435 67.8821 57.1119 67.2151 58.6738 67.1822ZM48.5308 66.0152C48.5555 65.982 48.5804 65.9483 48.602 65.9186 48.9334 65.4525 49.3478 64.9743 49.7174 64.5372 50.0533 64.1395 50.434 63.6763 50.8144 63.3234 51.3785 62.8004 52.0058 62.3035 52.6017 61.8214 52.6368 61.8049 52.7862 61.7409 52.8197 61.7573 52.8219 61.7788 52.7692 61.8423 52.7567 61.8576 52.2899 62.4526 51.7031 62.9402 51.1325 63.4314 50.6356 63.86 50.1775 64.3144 49.7529 64.8145 49.4926 65.12 49.2506 65.4534 48.9818 65.7488 48.6442 66.1195 48.46 66.399 48.217 66.829L48.2 66.8582 48.255 66.9002 48.2791 66.8755C48.3528 66.8001 48.4271 66.7261 48.4991 66.6493 49.953 65.1027 51.3459 63.0439 53.371 62.2196L53.4226 62.1989 53.4197 62.1425C53.3673 61.088 53.1751 60.5534 52.1243 60.1829 51.1594 59.8212 50.5015 59.8416 49.5343 60.1829 48.3803 60.622 47.5075 61.1518 46.6614 62.0586 44.0175 64.7626 39.0869 62.8177 43.3791 68.2863 43.6306 68.6222 43.7227 68.938 44.1159 69.1557L44.3069 69.2617 42.908 65.7065C43.2643 66.0745 43.5521 66.7794 43.7423 67.2338 43.9483 67.7259 44.2341 68.5675 44.5774 68.9562L44.617 69.0012 44.9918 68.8144 44.5799 66.4024C44.562 66.2899 44.4518 65.7442 44.4963 65.6821 44.5113 65.6833 44.5289 65.6991 44.5589 65.6994H44.5774L44.5944 65.6918C44.6049 65.6867 44.6128 65.6807 44.6196 65.6736 44.8109 66.0711 44.896 66.6765 44.9583 67.1122L45.195 68.2911C45.2242 68.3702 45.2494 68.451 45.2772 68.5307L45.2928 68.5743 45.3385 68.5826C45.3484 68.5843 45.3591 68.5882 45.3679 68.5933L45.4589 68.6409 45.481 68.5403C45.6911 67.5955 45.3796 64.9066 45.7804 64.2285L45.8991 66.3698 46.0315 66.0937C46.6041 64.8989 46.5423 62.5708 47.7349 61.8265 46.6226 63.5995 46.2237 66.3766 46.0199 68.4286L46.0097 68.5315 46.1112 68.5142C46.184 68.5015 46.2572 68.4887 46.3289 68.4714L46.4284 68.4465 46.3785 68.3566C46.3632 68.3291 46.3791 68.3065 46.3972 68.2693 46.4848 67.7806 46.5228 67.2817 46.6478 66.8004 46.7614 66.363 46.8805 65.6484 47.0534 65.2314 47.3573 64.4978 47.4191 63.5822 48.0002 63.1828 47.9752 63.4918 47.7703 64.0125 47.6785 64.2937 47.4667 64.9409 47.2586 65.5897 47.1016 66.2533 47.0356 66.5325 46.978 66.814 46.9352 67.0983L46.8641 67.5711 47.0826 67.1462C47.34 66.6459 47.6067 66.1513 47.8599 65.645 48.109 65.0214 48.509 64.4669 48.8537 63.8926 49.3982 62.9121 50.2206 61.4197 51.0392 60.6518 50.8649 61.5158 49.8407 62.4546 49.4666 63.2976 49.1151 64.2115 46.948 67.7203 46.9511 68.2364 46.9545 68.2486 46.957 68.2614 46.9593 68.2744L46.9701 68.3391 47.0356 68.3396C47.0577 68.3402 47.0798 68.343 47.1016 68.3461L47.1478 68.3532 47.1762 68.3155C47.3304 68.1131 47.4936 67.9022 47.5937 67.6661 47.6133 67.621 47.651 67.5697 47.6841 67.5252L48.5328 66.0166ZM40.297 68.2245C40.29 68.2007 40.333 68.1304 40.3398 68.1168 40.3483 68.1165 40.3659 68.1321 40.3727 68.1358 40.555 68.252 41.1168 69.1727 41.2033 69.4043 41.3592 69.8224 41.5556 70.3854 41.6631 70.833L41.6704 70.8627 41.6656 70.8956C41.6837 70.9075 41.6687 70.9673 41.6923 70.9894 41.7115 71.0002 41.73 71.0121 41.7481 71.0249L41.9083 71.1388 41.8706 70.9461C41.5823 69.4641 40.845 67.0796 39.5067 66.2326L39.4707 66.2102 39.4319 66.2275C39.0059 66.422 38.8797 66.7332 38.6365 67.0983 38.0492 67.9791 37.529 68.9516 37.23 69.9695 37.1506 70.2167 37.0372 70.526 36.8005 70.6632 36.544 70.8114 35.9603 70.8038 35.6559 70.8372 34.78 70.9316 33.946 71.1969 33.1393 71.5425 32.1897 71.9495 30.7366 72.7211 30.67 73.8986 30.4974 76.9657 34.9342 74.8108 36.3138 74.3825 36.6724 74.2632 36.9122 74.2521 37.101 73.878L37.1582 73.7637 33.0639 73.8609 33.0633 73.7393C34.2252 73.6744 37.6078 73.4842 38.5268 73.0692L38.6005 73.0358 38.5651 72.9629C38.5591 72.951 38.5586 72.9408 38.5605 72.9283L38.5727 72.8583 38.5044 72.8393C38.3814 72.8053 38.2527 72.7917 38.1271 72.771 37.9939 72.7072 37.639 72.7126 37.4882 72.7129 37.0633 72.6426 36.6216 72.6681 36.1964 72.6021 36.6554 72.3334 38.3241 72.5105 38.8596 72.5151L39.1266 72.5168 36.8433 71.0478 36.8702 71.0101 39.2655 72.2429 39.3398 72.1208 39.2834 72.078C39.0657 71.9121 39.075 71.7729 39.0759 71.5277L39.8585 72.0088 39.797 71.8092C39.615 71.2196 38.5727 71.0566 38.6561 70.6683L41.288 71.8946 41.1446 71.6839C40.8158 71.204 40.4731 71.5538 40.4649 70.8236 40.5235 70.8559 40.5836 70.8854 40.6443 70.9143L40.7078 70.9211 40.6919 70.8542C40.3254 70.3882 39.9597 69.9199 39.5875 69.4587 39.5657 69.4315 39.4509 69.2895 39.4597 69.2518 39.4863 69.2413 39.5677 69.2906 39.5889 69.3082 39.7636 69.457 40.062 69.853 40.2168 70.0401 40.3367 70.1858 40.4563 70.3318 40.5743 70.4789 40.6803 70.611 40.7976 70.7944 40.811 70.9688L40.8127 70.9914 40.8336 71.0014C41.04 71.096 41.2206 71.1947 41.3495 71.39L41.3946 71.4577 41.4607 71.4107C41.4819 71.3957 41.5128 71.3789 41.5397 71.384L41.6412 71.403 41.6324 71.3001C41.6242 71.2006 41.6134 71.102 41.6032 70.9963 41.4414 70.3981 41.2095 69.7453 40.947 69.1855 40.8438 68.9652 40.4977 68.3986 40.297 68.2245ZM32.3717 80.5796C31.6054 81.1341 30.4401 82.8405 29.9115 83.6694 27.4649 87.5066 27.8419 90.7194 29.3839 94.8115L30.2142 96.8275 30.2964 96.7107C31.6936 94.7197 33.5806 91.959 32.6931 89.4129 32.1276 87.6543 31.5876 87.0542 31.8733 85.0861 32.0876 83.6104 32.2637 82.1293 32.4955 80.6562L32.5247 80.4696ZM49.3804 80.2125C49.3846 80.2125 49.3889 80.2125 49.3931 80.2123L49.4685 80.204 49.4629 80.1283C49.4575 80.0597 49.4476 79.9914 49.4368 79.9143L48.6116 77.6203 47.9387 78.171 49.339 80.2125ZM42.7334 68.3087 42.673 70.1787 42.7856 70.1323C43.1572 69.9786 43.4398 69.7708 43.6714 69.44L43.706 69.3904 43.0554 68.6205C43.0036 68.5556 42.963 68.4842 42.9012 68.4227 42.8854 68.4096 42.8681 68.3977 42.8508 68.3861ZM48.0841 68.6854C48.5498 68.6154 48.6848 68.5981 48.9146 68.1596L48.9847 68.0261 48.8353 68.0448C48.6077 68.0737 48.5612 68.0859 48.3616 68.2058 48.2598 68.2673 48.1501 68.3158 48.0538 68.3861L48.0161 68.4139 48.0223 68.4598C48.0277 68.5003 48.0158 68.54 48.0002 68.5769L47.9443 68.7064ZM42.1705 70.7754C42.8295 69.5463 42.0854 65.571 40.2851 65.6271 39.9954 65.6532 39.6462 65.8151 39.5782 66.1263L39.5671 66.1759 39.6082 66.2054C40.3064 66.7191 40.8053 67.3483 41.2112 68.108 41.4992 68.6843 41.6625 69.3405 41.8331 69.9735 41.9063 70.2456 41.8861 70.5424 42.0347 70.7797L42.1064 70.8939Z" fill="#e06a6a" fill-rule="evenodd"/>
</svg>
